<?xml version="1.0" encoding="UTF-8" standalone="no"?>
<!-- Created with Inkscape (http://www.inkscape.org/) -->

<svg
   width="150mm"
   height="150mm"
   viewBox="0 0 150 150"
   version="1.1"
   id="svg1"
   inkscape:version="1.3 (0e150ed6c4, 2023-07-21)"
   sodipodi:docname="ComedyMask.svg"
   xml:space="preserve"
   xmlns:inkscape="http://www.inkscape.org/namespaces/inkscape"
   xmlns:sodipodi="http://sodipodi.sourceforge.net/DTD/sodipodi-0.dtd"
   xmlns="http://www.w3.org/2000/svg"
   xmlns:svg="http://www.w3.org/2000/svg"><sodipodi:namedview
     id="namedview1"
     pagecolor="#ffffff"
     bordercolor="#000000"
     borderopacity="0.25"
     inkscape:showpageshadow="2"
     inkscape:pageopacity="0.0"
     inkscape:pagecheckerboard="0"
     inkscape:deskcolor="#d1d1d1"
     inkscape:document-units="mm"
     inkscape:zoom="1.0242632"
     inkscape:cx="256.76994"
     inkscape:cy="202.58465"
     inkscape:window-width="1920"
     inkscape:window-height="1009"
     inkscape:window-x="-8"
     inkscape:window-y="-8"
     inkscape:window-maximized="1"
     inkscape:current-layer="layer2" /><defs
     id="defs1"><inkscape:path-effect
       effect="mirror_symmetry"
       start_point="237.58592,38.013901"
       end_point="237.58592,98.418305"
       center_point="237.58592,68.218273"
       id="path-effect10"
       is_visible="true"
       lpeversion="1.2"
       lpesatellites=""
       mode="X"
       discard_orig_path="false"
       fuse_paths="false"
       oposite_fuse="true"
       split_items="false"
       split_open="false"
       link_styles="false" /><linearGradient
       id="swatch4"
       inkscape:swatch="solid"
       gradientTransform="matrix(-0.10271767,-0.02230283,-0.02230283,0.10271767,220.33752,14.694643)"><stop
         style="stop-color:#55ddff;stop-opacity:1;"
         offset="0"
         id="stop4" /></linearGradient><linearGradient
       id="swatch3"
       inkscape:swatch="solid"
       gradientTransform="matrix(0.0964654,-0.04174638,0.04174638,0.0964654,102.40798,-5.5072548)"><stop
         style="stop-color:#e53d00;stop-opacity:1;"
         offset="0"
         id="stop3" /></linearGradient><linearGradient
       id="swatch2"
       inkscape:swatch="solid"
       gradientTransform="matrix(-0.60874751,-0.53554988,-0.53554988,0.60874751,709.03279,372.48626)"><stop
         style="stop-color:#000000;stop-opacity:1;"
         offset="0"
         id="stop2" /></linearGradient><linearGradient
       id="swatch1"
       inkscape:swatch="solid"
       gradientTransform="matrix(0.07000434,0,0,0.07000434,45.245083,-1.3355127e-8)"><stop
         style="stop-color:#ffffff;stop-opacity:1;"
         offset="0"
         id="stop1" /></linearGradient></defs><g
     inkscape:label="Layer 1"
     inkscape:groupmode="layer"
     id="layer1" /><g
     inkscape:groupmode="layer"
     id="layer2"
     inkscape:label="Poging 2"><g
       id="g22"><g
         id="g20"
         transform="matrix(0.6716883,0.19510199,-0.19510199,0.6716883,-123.74293,-33.736726)"
         inkscape:transform-center-x="3.4351607"
         inkscape:transform-center-y="-24.046891"
         inkscape:label="Sad face"><path
           style="fill:url(#swatch4);fill-opacity:1;stroke-width:1;stroke-linecap:round;stroke-linejoin:round"
           d="m 301.97337,33.523468 c -2.13237,2.669731 5.26437,101.995372 50.86439,101.965882 47.5056,-0.0307 55.25028,-100.047607 53.61533,-102.148537 -1.63495,-2.10093 -36.64459,7.922676 -54.24909,7.854245 -17.6045,-0.06843 -48.09827,-10.341322 -50.23063,-7.67159 z"
           id="path14"
           sodipodi:nodetypes="zszzz"
           inkscape:label="face" /><path
           style="fill:url(#swatch2);fill-opacity:1;stroke-width:1.35926;stroke-linecap:round;stroke-linejoin:round"
           d="m 328.36756,114.8826 c -0.0819,-4.69545 2.87672,-24.448361 25.87572,-24.240257 22.99901,0.208104 26.36846,16.691447 26.47025,23.701337 0.0226,1.55448 -1.04545,1.94914 -1.68377,1.95017 -3.2663,0.005 -14.52055,-3.92694 -24.14069,-3.72665 -9.62015,0.2003 -21.54121,3.66476 -24.87083,3.70033 -0.62983,0.007 -1.63372,-0.41326 -1.65068,-1.38493 z"
           id="path15"
           sodipodi:nodetypes="szsszss"
           inkscape:label="mouth" /><g
           id="g17"
           transform="translate(109.93753,2.332522)"
           inkscape:label="eyes"><path
             style="fill:url(#swatch2);fill-opacity:1;stroke-width:1;stroke-linecap:round;stroke-linejoin:round"
             d="m 203.1242,57.393953 c 0,0 10.30536,-7.027685 16.25172,-7.480842 5.84535,-0.44546 16.90552,4.847971 16.90552,4.847971 0,0 -10.17359,7.613892 -16.18498,8.073147 -5.92368,0.452556 -16.97226,-5.440276 -16.97226,-5.440276 z"
             id="path16"
             sodipodi:nodetypes="cacac" /><path
             style="fill:url(#swatch2);fill-opacity:1;stroke-width:1;stroke-linecap:round;stroke-linejoin:round"
             d="m 285.23346,57.393953 c 0,0 -10.30536,-7.027685 -16.25172,-7.480842 -5.84535,-0.44546 -16.90552,4.847971 -16.90552,4.847971 0,0 10.17359,7.613892 16.18498,8.073147 5.92368,0.452556 16.97226,-5.440276 16.97226,-5.440276 z"
             id="path17"
             sodipodi:nodetypes="cacac" /></g></g><g
         id="g19"
         inkscape:label="Happy face"
         transform="matrix(0.67741882,-0.17416574,0.17416574,0.67741882,-127.67,53.553767)"><path
           style="fill:url(#swatch3);fill-opacity:1;stroke-width:1;stroke-linecap:round;stroke-linejoin:round"
           d="m 191.15591,31.190946 c -2.13237,2.669731 5.26437,101.995374 50.86439,101.965884 47.5056,-0.0307 55.25028,-100.047609 53.61533,-102.148539 -1.63495,-2.10093 -36.64459,7.922676 -54.24909,7.854245 -17.6045,-0.06843 -48.09827,-10.341322 -50.23063,-7.67159 z"
           id="path3"
           sodipodi:nodetypes="zszzz"
           inkscape:label="face" /><g
           id="g9"
           transform="translate(-0.87993)"
           inkscape:label="eyes"><path
             style="fill:url(#swatch2);fill-opacity:1;stroke-width:1;stroke-linecap:round;stroke-linejoin:round"
             d="m 203.1242,57.393953 c 0,0 10.30536,-7.027685 16.25172,-7.480842 5.84535,-0.44546 16.90552,4.847971 16.90552,4.847971 0,0 -10.17359,7.613892 -16.18498,8.073147 -5.92368,0.452556 -16.97226,-5.440276 -16.97226,-5.440276 z"
             id="path7"
             sodipodi:nodetypes="cacac" /><path
             style="fill:url(#swatch2);fill-opacity:1;stroke-width:1;stroke-linecap:round;stroke-linejoin:round"
             d="m 285.23346,57.393953 c 0,0 -10.30536,-7.027685 -16.25172,-7.480842 -5.84535,-0.44546 -16.90552,4.847971 -16.90552,4.847971 0,0 10.17359,7.613892 16.18498,8.073147 5.92368,0.452556 16.97226,-5.440276 16.97226,-5.440276 z"
             id="path9"
             sodipodi:nodetypes="cacac" /></g><path
           style="opacity:1;fill:url(#swatch2);fill-opacity:1;stroke-width:1.35926;stroke-linecap:round;stroke-linejoin:round"
           d="m 216.13778,87.145696 c -0.89003,-0.437957 -2.17541,-0.03015 -2.24385,0.733876 -0.47204,5.269515 5.59868,31.024458 28.16508,32.512468 22.56639,1.488 30.51103,-31.417346 30.14989,-32.873802 -0.14212,-0.573183 -0.48689,-1.349026 -1.73562,-0.863501 -3.62251,1.408482 -16.84532,6.951523 -27.21071,6.839748 -10.36539,-0.111775 -22.65541,-4.149543 -27.12479,-6.348789 z"
           id="path18"
           sodipodi:nodetypes="sszsszs"
           inkscape:label="mouth" /></g></g></g></svg>
