<?xml version="1.0" encoding="UTF-8" standalone="no"?>
<!-- Created with Inkscape (http://www.inkscape.org/) -->

<svg
   width="225mm"
   height="100.93722mm"
   viewBox="0 0 566.92915 254.33001"
   version="1.1"
   id="svg1"
   inkscape:version="1.3 (0e150ed6c4, 2023-07-21)"
   xml:space="preserve"
   sodipodi:docname="NeonMountain.svg"
   xmlns:inkscape="http://www.inkscape.org/namespaces/inkscape"
   xmlns:sodipodi="http://sodipodi.sourceforge.net/DTD/sodipodi-0.dtd"
   xmlns:xlink="http://www.w3.org/1999/xlink"
   xmlns="http://www.w3.org/2000/svg"
   xmlns:svg="http://www.w3.org/2000/svg"><sodipodi:namedview
     id="namedview1"
     pagecolor="#ffffff"
     bordercolor="#000000"
     borderopacity="0.25"
     inkscape:showpageshadow="2"
     inkscape:pageopacity="0.0"
     inkscape:pagecheckerboard="0"
     inkscape:deskcolor="#d1d1d1"
     inkscape:document-units="mm"
     inkscape:zoom="2.0729425"
     inkscape:cx="285.10198"
     inkscape:cy="116.50106"
     inkscape:window-width="1920"
     inkscape:window-height="1009"
     inkscape:window-x="-8"
     inkscape:window-y="-8"
     inkscape:window-maximized="1"
     inkscape:current-layer="layer1" /><defs
     id="defs1"><linearGradient
       id="swatch54"><stop
         style="stop-color:#0000ff;stop-opacity:1;"
         offset="0"
         id="stop54" /></linearGradient><inkscape:path-effect
       effect="powerclip"
       id="path-effect53"
       is_visible="true"
       lpeversion="1"
       inverse="true"
       flatten="false"
       hide_clip="false"
       message="Use fill-rule evenodd on &lt;b&gt;fill and stroke&lt;/b&gt; dialog if no flatten result after convert clip to paths." /><linearGradient
       id="swatch45"><stop
         style="stop-color:#a0b7b4;stop-opacity:1;"
         offset="0"
         id="stop45" /></linearGradient><inkscape:path-effect
       effect="powerclip"
       id="path-effect44"
       is_visible="true"
       lpeversion="1"
       inverse="true"
       flatten="false"
       hide_clip="false"
       message="Use fill-rule evenodd on &lt;b&gt;fill and stroke&lt;/b&gt; dialog if no flatten result after convert clip to paths." /><inkscape:path-effect
       effect="powerclip"
       id="path-effect43"
       is_visible="true"
       lpeversion="1"
       inverse="true"
       flatten="false"
       hide_clip="false"
       message="Use fill-rule evenodd on &lt;b&gt;fill and stroke&lt;/b&gt; dialog if no flatten result after convert clip to paths." /><linearGradient
       id="swatch29"
       gradientTransform="translate(64.12917,-98.642074)"><stop
         style="stop-color:#000000;stop-opacity:1;"
         offset="0"
         id="stop29" /></linearGradient><linearGradient
       id="swatch28"><stop
         style="stop-color:#000000;stop-opacity:1;"
         offset="0"
         id="stop28" /></linearGradient><linearGradient
       id="swatch17"
       inkscape:swatch="solid"
       inkscape:label="Sun orange"><stop
         style="stop-color:#ff0000;stop-opacity:1;"
         offset="0"
         id="stop17" /></linearGradient><linearGradient
       id="swatch16"
       inkscape:swatch="solid"
       inkscape:label="Mountain blue"><stop
         style="stop-color:#0000ff;stop-opacity:1;"
         offset="0"
         id="stop16" /></linearGradient><linearGradient
       inkscape:collect="always"
       xlink:href="#swatch17"
       id="linearGradient17"
       x1="169.36439"
       y1="216.60033"
       x2="259.97701"
       y2="216.60033"
       gradientUnits="userSpaceOnUse" /><linearGradient
       inkscape:collect="always"
       xlink:href="#swatch16"
       id="linearGradient18"
       gradientUnits="userSpaceOnUse"
       x1="57.446182"
       y1="268.47136"
       x2="509.62215"
       y2="268.47136"
       gradientTransform="translate(0,4.5e-4)" /><linearGradient
       inkscape:collect="always"
       xlink:href="#swatch16"
       x1="57.4462px"
       y1="268.471px"
       x2="509.622px"
       y2="268.471px"
       gradientUnits="userSpaceOnUse"
       gradientTransform="translate(-0.38814047,-0.39796145)"
       id="linearGradient5238" /><filter
       inkscape:collect="always"
       style="color-interpolation-filters:sRGB"
       id="filter21"
       x="-0.057242487"
       y="-0.15405573"
       width="1.1175976"
       height="1.3163845"><feGaussianBlur
         inkscape:collect="always"
         stdDeviation="10.012438"
         id="feGaussianBlur21" /></filter><filter
       inkscape:collect="always"
       style="color-interpolation-filters:sRGB"
       id="filter22"
       x="-0.02561439"
       y="-0.059695339"
       width="1.0512288"
       height="1.1193907"><feGaussianBlur
         inkscape:collect="always"
         stdDeviation="3.6044816"
         id="feGaussianBlur22" /></filter><filter
       inkscape:collect="always"
       style="color-interpolation-filters:sRGB"
       id="filter23"
       x="-0.021118327"
       y="-0.059542525"
       width="1.0437932"
       height="1.1232216"><feGaussianBlur
         inkscape:collect="always"
         stdDeviation="3.6044778"
         id="feGaussianBlur23" /></filter><linearGradient
       inkscape:collect="always"
       xlink:href="#swatch17"
       id="linearGradient23"
       gradientUnits="userSpaceOnUse"
       x1="169.36439"
       y1="216.60033"
       x2="259.97701"
       y2="216.60033"
       gradientTransform="translate(0)" /><filter
       inkscape:collect="always"
       style="color-interpolation-filters:sRGB"
       id="filter28"
       x="-0.13361171"
       y="-0.13361171"
       width="1.2672234"
       height="1.2672234"><feGaussianBlur
         inkscape:collect="always"
         stdDeviation="3.6460871"
         id="feGaussianBlur28" /></filter><clipPath
       clipPathUnits="userSpaceOnUse"
       id="clipPath44"><path
         id="path44"
         style="display:none;fill:#000000;fill-opacity:1;stroke:none;stroke-width:1.88976;stroke-linecap:round;stroke-linejoin:round;stroke-dasharray:none;stroke-opacity:1"
         d="m 273.61867,230.19197 -30.874,41.96932 26.53234,92.05984 -88.28031,-43.81922 -31.3564,8.68331 -19.77864,-40.52212 25.56752,10.61293 53.06467,-51.13504 25.08511,-5.30647 60.30076,-70.91369 z"
         sodipodi:nodetypes="ccccccccccc"
         inkscape:label="Mountain cutout" /><path
         id="lpe_path-effect44"
         style="display:block;fill:#000000;fill-opacity:1;stroke:none;stroke-width:1.88976;stroke-linecap:round;stroke-linejoin:round;stroke-dasharray:none;stroke-opacity:1"
         class="powerclip"
         d="M 145.88898,147.8186 H 283.45243 V 285.38206 H 145.88898 Z m 127.72969,82.37337 20.26105,-58.37114 -60.30076,70.91369 -25.08511,5.30647 -53.06467,51.13504 -25.56752,-10.61293 19.77864,40.52212 31.3564,-8.68331 88.28031,43.81922 -26.53234,-92.05984 z" /></clipPath><filter
       inkscape:collect="always"
       style="color-interpolation-filters:sRGB"
       id="filter45"
       x="-0.085897217"
       y="-0.085897217"
       width="1.1717944"
       height="1.1717944"><feGaussianBlur
         inkscape:collect="always"
         stdDeviation="2.7096367"
         id="feGaussianBlur45" /></filter><filter
       inkscape:collect="always"
       style="color-interpolation-filters:sRGB"
       id="filter46"
       x="-0.23558898"
       y="-0.23558898"
       width="1.471178"
       height="1.471178"><feGaussianBlur
         inkscape:collect="always"
         stdDeviation="6.9366699"
         id="feGaussianBlur46" /></filter><clipPath
       clipPathUnits="userSpaceOnUse"
       id="clipPath44-8"><path
         id="path44-1"
         style="display:none;fill:#000000;fill-opacity:1;stroke:none;stroke-width:1.88976;stroke-linecap:round;stroke-linejoin:round;stroke-dasharray:none;stroke-opacity:1"
         d="m 273.61867,230.19197 -30.874,41.96932 26.53234,92.05984 -88.28031,-43.81922 -31.3564,8.68331 -19.77864,-40.52212 25.56752,10.61293 53.06467,-51.13504 25.08511,-5.30647 60.30076,-70.91369 z"
         sodipodi:nodetypes="ccccccccccc"
         inkscape:label="Mountain cutout" /><path
         id="lpe_path-effect44-0"
         style="display:block;fill:#000000;fill-opacity:1;stroke:none;stroke-width:1.88976;stroke-linecap:round;stroke-linejoin:round;stroke-dasharray:none;stroke-opacity:1"
         class="powerclip"
         d="M 145.88898,147.8186 H 283.45243 V 285.38205 H 145.88898 Z m 127.72969,82.37337 20.26105,-58.37114 -60.30076,70.91369 -25.08511,5.30647 -53.06467,51.13504 -25.56752,-10.61293 19.77864,40.52212 31.3564,-8.68331 88.28031,43.81922 -26.53234,-92.05984 z" /></clipPath><inkscape:path-effect
       effect="powerclip"
       id="path-effect44-6"
       is_visible="true"
       lpeversion="1"
       inverse="true"
       flatten="false"
       hide_clip="false"
       message="Use fill-rule evenodd on &lt;b&gt;fill and stroke&lt;/b&gt; dialog if no flatten result after convert clip to paths." /><clipPath
       clipPathUnits="userSpaceOnUse"
       id="clipPath53"><path
         id="path53"
         style="display:block;fill:#000000;fill-opacity:1;stroke:none;stroke-width:1.88976;stroke-linecap:round;stroke-linejoin:round;stroke-dasharray:none;stroke-opacity:1"
         d="m 273.61867,230.19197 -30.874,41.96932 26.53234,92.05984 -88.28031,-43.81922 -31.35639,8.68331 -19.77864,-40.52212 25.56751,10.61293 53.06467,-51.13504 25.08511,-5.30647 60.30076,-70.91369 z"
         sodipodi:nodetypes="ccccccccccc"
         inkscape:label="Mountain cutout" /></clipPath><linearGradient
       inkscape:collect="always"
       xlink:href="#swatch16"
       id="linearGradient54"
       x1="56.501301"
       y1="268.49747"
       x2="510.56702"
       y2="268.49747"
       gradientUnits="userSpaceOnUse" /></defs><g
     inkscape:groupmode="layer"
     id="layer2"
     inkscape:label="BG"
     inkscape:highlight-color="#000000"
     transform="scale(1,0.44860988)"
     sodipodi:insensitive="true"><rect
       style="fill:#000000;stroke:none;stroke-width:1.88976;stroke-linejoin:round"
       id="rect1"
       width="566.92914"
       height="566.92914"
       x="0"
       y="0"
       inkscape:label="BG" /></g><g
     inkscape:label="Layer 1"
     inkscape:groupmode="layer"
     id="layer1"
     transform="translate(0,-147.61626)"><g
       id="g37"
       inkscape:label="Circle"
       clip-path="url(#clipPath44)"
       inkscape:path-effect="#path-effect44"><path
         style="display:inline;opacity:1;fill:none;stroke:url(#linearGradient17);stroke-width:5.66929;stroke-linejoin:round;stroke-dasharray:none;stroke-opacity:1"
         id="path16"
         d="m 258.02489,216.60033 a 43.354187,43.354187 0 0 1 -43.35419,43.35418 43.354187,43.354187 0 0 1 -43.35419,-43.35418 43.354187,43.354187 0 0 1 43.35419,-43.35419 43.354187,43.354187 0 0 1 43.35419,43.35419 z"
         sodipodi:type="arc"
         sodipodi:cx="214.6707"
         sodipodi:cy="216.60033"
         sodipodi:rx="43.354187"
         sodipodi:ry="43.354187" /><path
         style="display:inline;opacity:1;mix-blend-mode:normal;fill:none;stroke:url(#linearGradient17);stroke-width:1.88976;stroke-linejoin:round;stroke-dasharray:none;stroke-opacity:1;filter:url(#filter45)"
         id="circle45"
         d="m 258.02489,216.60033 a 43.354187,43.354187 0 0 1 -43.35419,43.35418 43.354187,43.354187 0 0 1 -43.35419,-43.35418 43.354187,43.354187 0 0 1 43.35419,-43.35419 43.354187,43.354187 0 0 1 43.35419,43.35419 z"
         sodipodi:type="arc"
         sodipodi:cx="214.6707"
         sodipodi:cy="216.60033"
         sodipodi:rx="43.354187"
         sodipodi:ry="43.354187" /><path
         style="display:inline;opacity:1;mix-blend-mode:normal;fill:none;stroke:url(#linearGradient23);stroke-width:5.66929;stroke-linejoin:round;stroke-dasharray:none;stroke-opacity:1;filter:url(#filter28)"
         id="circle23"
         d="m 258.02489,216.60033 a 43.354187,43.354187 0 0 1 -43.35419,43.35418 43.354187,43.354187 0 0 1 -43.35419,-43.35418 43.354187,43.354187 0 0 1 43.35419,-43.35419 43.354187,43.354187 0 0 1 43.35419,43.35419 z"
         sodipodi:type="arc"
         sodipodi:cx="214.6707"
         sodipodi:cy="216.60033"
         sodipodi:rx="43.354187"
         sodipodi:ry="43.354187" /><path
         style="display:inline;opacity:1;mix-blend-mode:normal;fill:none;stroke:url(#linearGradient23);stroke-width:7.55906;stroke-linejoin:round;stroke-dasharray:none;stroke-opacity:1;filter:url(#filter46)"
         id="path45"
         d="m 258.02489,216.60033 a 43.354187,43.354187 0 0 1 -43.35419,43.35418 43.354187,43.354187 0 0 1 -43.35419,-43.35418 43.354187,43.354187 0 0 1 43.35419,-43.35419 43.354187,43.354187 0 0 1 43.35419,43.35419 z"
         sodipodi:type="arc"
         sodipodi:cx="214.6707"
         sodipodi:cy="216.60033"
         sodipodi:rx="43.354187"
         sodipodi:ry="43.354187" /></g><g
       id="g26"
       inkscape:label="Mountain"><path
         id="path15"
         style="opacity:1;fill:none;fill-opacity:0;stroke:url(#linearGradient54);stroke-width:5.66929;stroke-linecap:round;stroke-linejoin:round;stroke-dasharray:none;stroke-opacity:1"
         d="m 285.35083,197.90803 25.74386,10.85288 33.82564,65.72814 27.49715,0.4824 17.84902,37.62768 22.67309,5.30646 62.71279,46.71367 M 243.13265,272.55942 274.00664,230.5901 294.2677,172.21896 m -164.01806,116.74227 19.77864,40.52211 31.3564,-8.68331 88.28031,43.81923 -26.53234,-92.05984 60.78317,49.20542 19.29624,-4.34165 56.44151,47.19607 m -320.317623,0 70.913693,-75.65803 25.56752,10.61293 53.06466,-51.13504 25.08512,-5.30647 60.30076,-70.91369 92.62196,95.034 23.15549,-13.02497 20.74347,29.90918 28.94436,15.9194 47.9994,64.56269"
         sodipodi:nodetypes="ccccccccccccccccccccccccccccc"
         inkscape:label="Mountain 1" /><path
         d="m 285.35068,197.90796 25.744,10.852 v 0 l 33.825,65.729 h 10e-4 l 27.496,0.482 h 0.001 l 17.848,37.628 h 0.001 l 22.673,5.306 v 10e-4 l 62.712,46.71296 m -232.519,-92.05996 m 0,0 v -0.001 l 30.874,-41.968 v -0.001 l 20.261,-58.37 m -164.018,116.742 m 0,0 v 0 l 19.778,40.522 h 0.001 l 31.356,-8.683 v 0 l 88.28,43.81896 v 0 l -26.532,-92.05996 v 10e-4 l 60.783,49.204 h 10e-4 l 19.295,-4.341 h 10e-4 l 56.441,47.19596 m -320.3181,0 m 0,0 h 2e-4 l 70.9139,-75.65796 v 0 l 25.567,10.613 0.001,-10e-4 53.064,-51.134 v 0 l 25.085,-5.307 v 0 l 60.301,-70.913 v 0 l 92.622,95.034 v -10e-4 l 23.155,-13.024 v 0 l 20.744,29.909 v 0 l 28.944,15.919 10e-4,10e-4 47.998,64.56196"
         style="display:inline;fill:none;fill-opacity:0;stroke:#1128ff;stroke-width:3.77953;stroke-dasharray:none;stroke-opacity:1;filter:url(#filter23)"
         id="path21"
         inkscape:label="Mountain 2" /><path
         id="path17"
         style="display:inline;opacity:1;mix-blend-mode:normal;fill:none;fill-opacity:0;stroke:url(#linearGradient18);stroke-width:5.66929;stroke-linecap:round;stroke-linejoin:round;stroke-dasharray:none;stroke-opacity:1;filter:url(#filter22)"
         d="m 285.35083,197.90803 25.74386,10.85288 33.82564,65.72814 27.49715,0.4824 17.84902,37.62768 22.67309,5.30646 62.71279,46.71367 M 243.13265,272.55942 274.00664,230.5901 294.2677,172.21896 m -164.01806,116.74227 19.77864,40.52211 31.3564,-8.68331 88.28031,43.81923 -26.53234,-92.05984 60.78317,49.20542 19.29624,-4.34165 56.44151,47.19607 m -320.317623,0 70.913693,-75.65803 25.56752,10.61293 53.06466,-51.13504 25.08512,-5.30647 60.30076,-70.91369 92.62196,95.034 23.15549,-13.02497 20.74347,29.90918 28.94436,15.9194 47.9994,64.56269"
         sodipodi:nodetypes="ccccccccccccccccccccccccccccc"
         inkscape:label="Mountain 3" /><path
         d="m 284.96286,197.51004 25.744,10.852 v 0 l 33.825,65.729 h 0.001 l 27.496,0.482 h 10e-4 l 17.848,37.628 h 10e-4 l 22.673,5.306 v 10e-4 l 62.712,46.71296 m -232.519,-92.05996 m 0,0 v -0.001 l 30.874,-41.968 v -0.001 l 20.261,-58.37 m -164.018,116.742 m 0,0 v 0 l 19.778,40.522 h 0.001 l 31.356,-8.683 v 0 l 88.28,43.81896 v 0 l -26.532,-92.05996 v 10e-4 l 60.783,49.204 h 0.001 l 19.295,-4.341 h 10e-4 l 56.441,47.19596 m -320.3181,0 m 0,0 h 2e-4 l 70.9139,-75.65796 v 0 l 25.567,10.613 0.001,-10e-4 53.064,-51.134 v 0 l 25.085,-5.307 v 0 l 60.301,-70.913 v 0 l 92.622,95.034 v -10e-4 l 23.155,-13.024 v 0 l 20.744,29.909 v 0 l 28.944,15.919 0.001,10e-4 47.998,64.56196"
         style="display:inline;mix-blend-mode:normal;fill:none;fill-opacity:0;stroke:url(#linearGradient5238);stroke-width:7.55906;stroke-dasharray:none;stroke-opacity:1;filter:url(#filter21)"
         id="path19"
         inkscape:label="Mountain 4" /></g></g></svg>
