<?xml version="1.0" encoding="UTF-8" standalone="no"?>
<!-- Created with Inkscape (http://www.inkscape.org/) -->

<svg
   width="177.03391mm"
   height="206.43811mm"
   viewBox="0 0 177.03391 206.43811"
   version="1.1"
   id="svg1"
   xml:space="preserve"
   sodipodi:docname="Waterfall.svg"
   inkscape:version="1.3 (0e150ed6c4, 2023-07-21)"
   xmlns:inkscape="http://www.inkscape.org/namespaces/inkscape"
   xmlns:sodipodi="http://sodipodi.sourceforge.net/DTD/sodipodi-0.dtd"
   xmlns="http://www.w3.org/2000/svg"
   xmlns:svg="http://www.w3.org/2000/svg"><sodipodi:namedview
     id="namedview1"
     pagecolor="#ffffff"
     bordercolor="#999999"
     borderopacity="1"
     inkscape:showpageshadow="2"
     inkscape:pageopacity="0"
     inkscape:pagecheckerboard="0"
     inkscape:deskcolor="#d1d1d1"
     inkscape:document-units="mm"
     showgrid="false"
     inkscape:zoom="0.70710678"
     inkscape:cx="274.35743"
     inkscape:cy="337.28993"
     inkscape:window-width="1920"
     inkscape:window-height="1009"
     inkscape:window-x="-8"
     inkscape:window-y="-8"
     inkscape:window-maximized="1"
     inkscape:current-layer="layer1"
     inkscape:lockguides="true"><inkscape:grid
       id="grid1"
       units="mm"
       originx="-404.88096"
       originy="169.96339"
       spacingx="1"
       spacingy="0.99999998"
       empcolor="#0099e5"
       empopacity="0.30196078"
       color="#0099e5"
       opacity="0.14901961"
       empspacing="5"
       dotted="false"
       gridanglex="30"
       gridanglez="30"
       visible="false" /></sodipodi:namedview><defs
     id="defs1"><inkscape:path-effect
       effect="mirror_symmetry"
       start_point="62.533266,21.777616"
       end_point="57.373892,22.036247"
       center_point="59.953579,21.906932"
       id="path-effect52"
       is_visible="true"
       lpeversion="1.2"
       lpesatellites=""
       mode="free"
       discard_orig_path="false"
       fuse_paths="false"
       oposite_fuse="false"
       split_items="false"
       split_open="false"
       link_styles="false" /><inkscape:path-effect
       effect="mirror_symmetry"
       start_point="188.62385,-32.43454"
       end_point="188.62385,-17.467446"
       center_point="188.62385,-24.950993"
       id="path-effect5"
       is_visible="true"
       lpeversion="1.2"
       lpesatellites=""
       mode="free"
       discard_orig_path="false"
       fuse_paths="false"
       oposite_fuse="false"
       split_items="false"
       split_open="false"
       link_styles="false" /><inkscape:path-effect
       effect="mirror_symmetry"
       start_point="118.64751,-17.279096"
       end_point="118.64751,108.71147"
       center_point="118.64751,45.716187"
       id="path-effect4"
       is_visible="true"
       lpeversion="1.2"
       lpesatellites=""
       mode="free"
       discard_orig_path="false"
       fuse_paths="false"
       oposite_fuse="false"
       split_items="false"
       split_open="false"
       link_styles="false" /><inkscape:path-effect
       effect="mirror_symmetry"
       start_point="109.1482,0.20253747"
       end_point="109.14992,28.520227"
       center_point="109.14906,14.361382"
       id="path-effect3"
       is_visible="true"
       lpeversion="1.2"
       lpesatellites=""
       mode="free"
       discard_orig_path="false"
       fuse_paths="false"
       oposite_fuse="false"
       split_items="false"
       split_open="false"
       link_styles="false" /><linearGradient
       id="swatch42"><stop
         style="stop-color:#a572ff;stop-opacity:1;"
         offset="0.58520901"
         id="stop43" /></linearGradient><linearGradient
       id="swatch30"
       inkscape:swatch="solid"><stop
         style="stop-color:#045606;stop-opacity:1;"
         offset="0"
         id="stop31" /></linearGradient><inkscape:path-effect
       effect="mirror_symmetry"
       start_point="60.841324,50"
       end_point="60.841324,130"
       center_point="60.841324,90"
       id="path-effect1"
       is_visible="true"
       lpeversion="1.2"
       lpesatellites=""
       mode="free"
       discard_orig_path="false"
       fuse_paths="false"
       oposite_fuse="false"
       split_items="false"
       split_open="false"
       link_styles="false" /></defs><g
     inkscape:label="Layer 1"
     inkscape:groupmode="layer"
     id="layer1"
     transform="translate(-32.966079,44.969481)"><rect
       style="fill:#3cb1c3;stroke-width:0.339303;paint-order:markers fill stroke"
       id="rect30"
       width="177.03391"
       height="178.39227"
       x="32.96608"
       y="-16.923649" /><path
       style="fill:none;fill-opacity:1;stroke:#0b5cd5;stroke-width:0.365001;stroke-opacity:1;paint-order:markers fill stroke"
       d="M 119.38247,-1.4651667 118.08436,76.104431"
       id="path41-5" /><path
       style="fill:none;fill-opacity:1;stroke:#0b5cd5;stroke-width:0.365001;stroke-opacity:1;paint-order:markers fill stroke"
       d="M 128.59521,6.2100319 127.2971,83.77963"
       id="path41-3" /><path
       id="path30-0-2"
       style="fill:#ffffff;fill-opacity:1;stroke-width:0.268681;paint-order:markers fill stroke"
       d="m 135.24236,115.95616 a 7.0114604,6.4271722 0.49000535 0 1 6.95624,6.4869 7.0114604,6.4271722 0.49000535 0 1 -0.0169,0.19462 l -13.99196,-0.11967 a 7.0114604,6.4271722 0.49000535 0 1 -0.0135,-0.19489 7.0114604,6.4271722 0.49000535 0 1 7.06617,-6.36697 z" /><rect
       style="fill:#8fd19e;stroke-width:0.365001;paint-order:markers fill stroke"
       id="rect28"
       width="57.149998"
       height="140.22917"
       x="32.96608"
       y="-16.923649" /><rect
       style="fill:#8fd19e;stroke-width:0.365001;paint-order:markers fill stroke"
       id="rect29"
       width="57.442238"
       height="140.22917"
       x="152.55774"
       y="-16.923651" /><path
       id="path47-4"
       style="fill:#3cb1c3;fill-opacity:1;stroke:none;stroke-width:0.365001;stroke-opacity:1;paint-order:markers fill stroke"
       d="m 133.39716,-44.969482 -43.281081,28.045834 h 5.014681 0.977718 5.014682 5.01468 4.03645 0.97771 5.01469 5.01468 4.03696 0.97772 5.01468 5.01468 0.10904 4.00802 1.00666 4.98574 1.00666 4.00802 l 1.20819,-3e-6 42.49819,-28.04583 h -1.00666 -4.00802 -1.00666 -4.08812 -1.00666 -4.00802 -1.00666 -5.01468 -5.01468 -0.0801 -4.93458 -5.01469 -5.01468 -0.0801 -4.93407 -5.01468 -5.01468 -0.0801 z"
       sodipodi:nodetypes="ccccccccccccccccccccccccccccccccccccccccc" /><path
       id="path30"
       style="fill:#ffffff;fill-opacity:1;stroke-width:0.365001;paint-order:markers fill stroke"
       d="m 91.438993,115.36802 a 9.5249996,8.7312498 0 0 0 -9.524998,8.73125 9.5249996,8.7312498 0 0 0 0.02067,0.26458 h 19.008654 a 9.5249996,8.7312498 0 0 0 0.0207,-0.26458 9.5249996,8.7312498 0 0 0 -9.524997,-8.73125 z" /><path
       id="path30-6"
       style="fill:#ffffff;fill-opacity:1;stroke-width:0.365001;paint-order:markers fill stroke"
       d="m 106.60849,119.24874 a 9.5249996,8.7312498 0 0 0 -9.524996,8.73125 9.5249996,8.7312498 0 0 0 0.02067,0.26457 h 19.008656 a 9.5249996,8.7312498 0 0 0 0.0207,-0.26457 9.5249996,8.7312498 0 0 0 -9.525,-8.73125 z" /><path
       id="path30-7"
       style="fill:#ffffff;fill-opacity:1;stroke-width:0.365001;paint-order:markers fill stroke"
       d="m 118.65119,115.95587 a 9.5249996,8.7312498 0 0 0 -9.525,8.73125 9.5249996,8.7312498 0 0 0 0.0207,0.26458 h 19.00865 a 9.5249996,8.7312498 0 0 0 0.0207,-0.26458 9.5249996,8.7312498 0 0 0 -9.52499,-8.73125 z" /><path
       id="path30-9"
       style="fill:#ffffff;fill-opacity:1;stroke-width:0.365001;paint-order:markers fill stroke"
       d="m 143.46428,115.62985 a 9.5249996,8.7312498 0 0 0 -9.525,8.73125 9.5249996,8.7312498 0 0 0 0.0207,0.26458 h 19.00866 a 9.5249996,8.7312498 0 0 0 0.0207,-0.26458 9.5249996,8.7312498 0 0 0 -9.525,-8.73125 z" /><path
       id="path30-8"
       style="fill:#ffffff;fill-opacity:1;stroke-width:0.365001;paint-order:markers fill stroke"
       d="m 129.21525,119.24873 a 9.5249996,8.7312498 0 0 0 -9.525,8.73125 9.5249996,8.7312498 0 0 0 0.0207,0.26458 h 19.00866 a 9.5249996,8.7312498 0 0 0 0.0207,-0.26458 9.5249996,8.7312498 0 0 0 -9.525,-8.73125 z" /><path
       id="path30-0"
       style="fill:#ffffff;fill-opacity:1;stroke-width:0.268681;paint-order:markers fill stroke"
       d="m 100.89873,114.46883 a 6.4271722,7.0114604 77.916183 0 0 -5.510624,7.75255 6.4271722,7.0114604 77.916183 0 0 0.05565,0.18726 l 13.682434,-2.92922 a 6.4271722,7.0114604 77.916183 0 0 -0.0259,-0.19363 6.4271722,7.0114604 77.916183 0 0 -8.20158,-4.81696 z" /><path
       style="fill:none;fill-opacity:1;stroke-width:0.365001;paint-order:markers fill stroke"
       d="m 98.447111,-0.06820029 c 0.553601,0 1.343377,-0.06115315 1.870889,0.18708687 2.69884,1.27004232 6.7461,4.60004052 8.41899,7.10936992 0.3407,0.511048 0.48542,1.1287205 0.74835,1.6837978 0.29848,0.630121 0.68137,1.2215887 0.93545,1.8708877 0.30909,0.789905 0.47089,1.63059 0.74835,2.432153 0.71158,2.055677 1.47474,4.074263 2.05798,6.173925 0.15388,0.553982 0.20268,1.135012 0.37417,1.683797 0.60866,1.947701 1.61329,3.861165 1.30963,5.986839 -0.22163,1.551402 -1.27643,3.063411 -1.87089,4.490127 -0.51359,1.232614 -0.85868,2.556851 -1.49671,3.741774 -1.67037,3.102105 0.0946,-0.797406 -1.30962,2.245064 -0.19903,0.431228 -0.32196,0.899377 -0.56127,1.309621 -0.13902,0.238326 -1.60708,1.94291 -1.6838,2.057974 -0.38676,0.580139 -0.69062,1.218044 -0.93544,1.870888 -0.0903,0.240757 -0.0721,0.518371 -0.18709,0.748355 -0.82758,1.655165 -1.27191,2.192271 -2.24506,3.554682 -1.08921,1.524884 -2.26613,2.975613 -3.3676,4.49013 -0.23486,0.322943 -0.56977,0.578282 -0.74835,0.935443 -0.42568,0.851355 -0.30972,2.090988 -0.37418,2.993419 -0.093,1.302279 -0.341835,1.67808 -0.187088,2.993419 0.06718,0.571018 0.255728,1.121172 0.374178,1.683797 0.34044,1.617081 0.62837,3.283003 1.12253,4.864307 0.91631,2.932178 2.2506,5.834888 3.55469,8.606078 0.54886,1.166326 0.86057,2.067279 1.4967,3.180506 0.22312,0.390453 0.57121,0.709189 0.74836,1.122532 0.20257,0.472678 0.20121,1.012412 0.37418,1.496711 0.44198,1.237543 1.31461,2.668026 2.05797,3.741771 0.27725,0.400466 0.66527,0.717267 0.93544,1.122532 0.23206,0.348083 0.28579,0.807699 0.56127,1.122532 0.18366,0.209891 0.51185,0.226364 0.74836,0.374179 1.24743,0.779643 1.59385,0.935442 3.1805,0.935442"
       id="path31" /><path
       style="fill:none;fill-opacity:1;stroke:#0b5cd5;stroke-width:0.365001;stroke-opacity:1;paint-order:markers fill stroke"
       d="m 140.28889,27.284432 -1.29811,77.569598"
       id="path41" /><path
       style="fill:none;fill-opacity:1;stroke:#0b5cd5;stroke-width:0.365001;stroke-opacity:1;paint-order:markers fill stroke"
       d="m 104.84369,30.42519 -1.29811,77.5696"
       id="path41-53" /><path
       id="path47-4-9"
       style="fill:#8fd19e;fill-opacity:1;stroke:none;stroke-width:0.365001;stroke-opacity:1;paint-order:markers fill stroke"
       d="M 32.966079 -44.969481 L 32.966079 -19.824246 L 32.966079 -16.923648 L 33.471991 -16.923648 L 37.480015 -16.923648 L 39.46439 -16.923648 L 43.472414 -16.923648 L 44.479071 -16.923648 L 48.487095 -16.923648 L 48.515517 -16.923648 L 49.69529 -16.923648 L 54.507917 -16.923648 L 59.522598 -16.923648 L 63.55956 -16.923648 L 64.537279 -16.923648 L 69.55196 -16.923648 L 74.566641 -16.923648 L 74.675678 -16.923648 L 78.683702 -16.923648 L 79.690359 -16.923648 L 84.676101 -16.923648 L 85.682758 -16.923648 L 89.690782 -16.923648 L 90.898977 -16.923648 L 133.39716 -44.969481 L 132.3905 -44.969481 L 128.38248 -44.969481 L 127.37582 -44.969481 L 123.2877 -44.969481 L 122.28104 -44.969481 L 118.27302 -44.969481 L 117.26636 -44.969481 L 112.25168 -44.969481 L 107.237 -44.969481 L 107.1569 -44.969481 L 102.22232 -44.969481 L 97.207636 -44.969481 L 92.193472 -44.969481 L 92.192955 -44.969481 L 92.112856 -44.969481 L 91.186815 -44.969481 L 87.178791 -44.969481 L 86.172134 -44.969481 L 82.16411 -44.969481 L 81.077354 -44.969481 L 77.06933 -44.969481 L 76.062673 -44.969481 L 72.054649 -44.969481 L 71.047992 -44.969481 L 66.033311 -44.969481 L 65.953213 -44.969481 L 61.01863 -44.969481 L 56.003949 -44.969481 L 50.989268 -44.969481 L 50.90917 -44.969481 L 45.975104 -44.969481 L 40.960423 -44.969481 L 35.945742 -44.969481 L 35.865644 -44.969481 L 32.966079 -44.969481 z " /><path
       id="path47-4-9-0"
       style="fill:#8fd19e;fill-opacity:1;stroke:none;stroke-width:0.365001;stroke-opacity:1;paint-order:markers fill stroke"
       d="M 195.05593 -44.969481 L 152.33709 -16.923648 L 157.35177 -16.923648 L 158.32949 -16.923648 L 163.34417 -16.923648 L 168.35885 -16.923648 L 172.39529 -16.923648 L 173.37301 -16.923648 L 178.38769 -16.923648 L 183.40237 -16.923648 L 187.43934 -16.923648 L 188.41706 -16.923648 L 193.43174 -16.923648 L 198.44642 -16.923648 L 198.55545 -16.923648 L 202.56348 -16.923648 L 203.57014 -16.923648 L 208.55588 -16.923648 L 209.56253 -16.923648 L 210.00023 -16.923648 L 210.00023 -44.969481 L 206.04389 -44.969481 L 201.02921 -44.969481 L 200.94911 -44.969481 L 195.05593 -44.969481 z " /><path
       style="fill:#fd933a;fill-opacity:1;stroke:#fd7e14;stroke-width:0.365001;stroke-opacity:1;paint-order:markers fill stroke"
       d="m 32.96608,-16.923648 h 177.03415 v 0"
       id="path48" /><path
       style="fill:#656565;fill-opacity:1;stroke:none;stroke-width:0.365001;stroke-opacity:1;paint-order:markers fill stroke"
       id="path49-3"
       sodipodi:type="arc"
       sodipodi:cx="-192.0853"
       sodipodi:cy="21.81353"
       sodipodi:rx="16.244228"
       sodipodi:ry="10.583333"
       sodipodi:start="0"
       sodipodi:end="3.1415927"
       sodipodi:arc-type="slice"
       d="m -175.84107,21.81353 a 16.244228,10.583333 0 0 1 -8.12211,9.165435 16.244228,10.583333 0 0 1 -16.24423,0 16.244228,10.583333 0 0 1 -8.12211,-9.165435 h 16.24422 z"
       transform="scale(-1)" /><path
       id="path50"
       style="fill:#228c3a;fill-opacity:1;stroke:#228c3a;stroke-width:0.365001;stroke-opacity:1;paint-order:markers fill stroke"
       d="M 86.675462 -44.969481 L 83.037441 -40.769221 L 86.344733 -40.769221 L 79.862441 -32.964012 L 90.445775 -32.765575 L 90.313483 -29.590575 L 91.371816 -29.259846 L 91.967129 -32.765575 L 102.61661 -33.228596 L 93.620775 -40.769221 L 101.35984 -40.769221 L 97.986916 -44.969481 L 86.675462 -44.969481 z " /><path
       id="path50-7"
       style="fill:#228c3a;fill-opacity:1;stroke:#228c3a;stroke-width:0.365001;stroke-opacity:1;paint-order:markers fill stroke"
       d="M 53.496609 -44.969481 L 49.978477 -42.257502 L 54.013373 -42.059064 L 46.736815 -33.658544 L 50.044623 -33.658544 L 43.561815 -25.853335 L 54.145148 -25.654898 L 54.013373 -22.479898 L 55.07119 -22.149169 L 55.666502 -25.654898 L 66.316498 -26.117919 L 57.320665 -33.658544 L 65.059727 -33.658544 L 58.047752 -42.389794 L 62.744623 -42.720523 L 60.146849 -44.969481 L 53.496609 -44.969481 z " /></g></svg>
