<?xml version="1.0" encoding="UTF-8" standalone="no"?>
<!-- Created with Inkscape (http://www.inkscape.org/) -->

<svg
   width="226.80441mm"
   height="118.72694mm"
   viewBox="0 0 226.80442 118.72694"
   version="1.1"
   id="svg1"
   inkscape:version="1.3 (0e150ed6c4, 2023-07-21)"
   sodipodi:docname="WaterLily.svg"
   xmlns:inkscape="http://www.inkscape.org/namespaces/inkscape"
   xmlns:sodipodi="http://sodipodi.sourceforge.net/DTD/sodipodi-0.dtd"
   xmlns="http://www.w3.org/2000/svg"
   xmlns:svg="http://www.w3.org/2000/svg">
  <sodipodi:namedview
     id="namedview1"
     pagecolor="#ffffff"
     bordercolor="#000000"
     borderopacity="0.25"
     inkscape:showpageshadow="2"
     inkscape:pageopacity="0.0"
     inkscape:pagecheckerboard="0"
     inkscape:deskcolor="#d1d1d1"
     inkscape:document-units="mm"
     inkscape:zoom="1.4485269"
     inkscape:cx="381.42197"
     inkscape:cy="178.45716"
     inkscape:window-width="1920"
     inkscape:window-height="1009"
     inkscape:window-x="-8"
     inkscape:window-y="-8"
     inkscape:window-maximized="1"
     inkscape:current-layer="layer1" />
  <defs
     id="defs1" />
  <g
     inkscape:label="Layer 1"
     inkscape:groupmode="layer"
     id="layer1"
     transform="translate(8.402214,-151.60517)">
    <rect
       style="fill:#217adc;stroke-width:2.41252;stroke-linecap:round"
       id="rect1"
       width="226.80441"
       height="118.72693"
       x="-8.4022141"
       y="151.60516" />
    <ellipse
       style="opacity:0.234513;fill:#ffffff;stroke:none;stroke-width:0.533324;stroke-linecap:round"
       id="path93-6"
       cx="66.436577"
       cy="235.26318"
       rx="5.2533693"
       ry="2.1233857" />
    <path
       id="path73"
       style="fill:#fff6d5;stroke:#000000;stroke-width:0.60976;stroke-linecap:round"
       d="m 125.25319,181.58669 c 0,0 -28.342512,9.88519 -35.750277,21.11824 -7.407778,11.23305 -2.704158,21.9062 4.321792,26.53955 7.025945,4.63334 18.079015,4.35111 25.486775,-6.88193 7.40776,-11.23305 5.94171,-40.77586 5.94171,-40.77586 z"
       sodipodi:nodetypes="csssc"
       inkscape:transform-center-x="-11.706679"
       inkscape:transform-center-y="-22.038701" />
    <path
       id="path72"
       style="fill:#fff6d5;stroke:#000000;stroke-width:0.60976;stroke-linecap:round"
       d="m 80.202389,180.8072 c 0,0 28.083251,10.59935 35.204351,22.01628 7.1211,11.41694 2.14886,21.96763 -4.9921,26.42167 -7.14097,4.45404 -18.183357,3.89216 -25.304447,-7.52477 -7.121094,-11.41694 -4.907804,-40.91318 -4.907804,-40.91318 z"
       sodipodi:nodetypes="csssc"
       inkscape:transform-center-x="11.020966"
       inkscape:transform-center-y="-22.544595" />
    <path
       id="path7"
       style="fill:#008000;stroke:#000000;stroke-width:0.771001;stroke-linecap:round"
       d="m 194.16972,235.55508 c 28.55066,2.57608 -73.54009,17.46854 -134.029039,8.27419 C 17.850153,237.40108 -8.8889522,231.25858 7.0994898,222.5621 24.952631,212.85136 74.209294,215.89781 126.77132,211.98847 c 42.59867,-3.16831 88.0035,17.31002 80.99713,17.19649 l -102.63014,-1.66305 z"
       sodipodi:nodetypes="ssssscs" />
    <path
       style="opacity:0.402469;fill:none;stroke:#ffffff;stroke-width:0.771001;stroke-linecap:round"
       d="m 72.697416,221.01476 -18.44834,-4.56642"
       id="path85" />
    <rect
       style="fill:#ff0000;stroke-width:0.771001;stroke-linecap:round"
       id="rect2"
       width="43.10701"
       height="33.974171"
       x="-96.808121"
       y="97.173431" />
    <rect
       style="fill:#008000;stroke-width:0.771001;stroke-linecap:round"
       id="rect3"
       width="74.889297"
       height="40.184502"
       x="-97.538742"
       y="128.40775" />
    <path
       id="path71"
       style="fill:#fff6d5;stroke:#000000;stroke-width:0.60976;stroke-linecap:round"
       d="m 61.181856,185.28968 c 0,0 29.751089,3.98596 39.265724,13.50059 9.51463,9.51463 7.05256,20.91544 1.10143,26.86657 -5.951125,5.95112 -16.835305,7.89655 -26.349926,-1.61807 -9.514631,-9.51463 -14.017228,-38.74909 -14.017228,-38.74909 z"
       sodipodi:nodetypes="csssc" />
    <path
       style="opacity:0.07522124;fill:#000000;stroke:none;stroke-width:0.771001;stroke-linecap:round"
       d="m 80.522986,189.64216 c 0,0 -7.814053,9.55769 -6.65163,17.88837 1.162421,8.33069 8.330682,21.44021 8.330682,21.44021 3.837949,1.28371 7.682165,2.47341 11.688788,1.227 l -3.03521,-37.26205 z"
       id="path87"
       sodipodi:nodetypes="cscccc" />
    <path
       style="opacity:0.558025;fill:#ffffff;stroke:#000000;stroke-width:0.771001;stroke-linecap:round"
       d="m 132.70018,218.54889 7.58026,-4.10978"
       id="path84" />
    <path
       id="path71-3"
       style="fill:#fff6d5;stroke:#000000;stroke-width:0.60976;stroke-linecap:round"
       d="m 143.06709,185.28968 c 0,0 -29.75109,3.98596 -39.26571,13.50059 -9.514633,9.51463 -7.052563,20.91544 -1.10143,26.86657 5.95111,5.95112 16.83529,7.89655 26.34991,-1.61807 9.51463,-9.51463 14.01723,-38.74909 14.01723,-38.74909 z"
       sodipodi:nodetypes="csssc" />
    <path
       id="rect71"
       style="fill:#fff6d5;stroke:#000000;stroke-width:0.60976;stroke-linecap:round"
       d="m 101.94182,174.84448 c 0,0 18.2187,23.8557 18.2187,37.31142 0,13.45572 -9.80253,19.77636 -18.2187,19.77636 -8.416164,0 -17.488069,-6.32065 -17.488069,-19.77636 0,-13.45572 17.488069,-37.31142 17.488069,-37.31142 z"
       sodipodi:nodetypes="csssc" />
    <path
       style="opacity:0.261728;fill:none;stroke:#000000;stroke-width:0.771001;stroke-linecap:round"
       d="M 77.903135,228.59501 C 51.033511,227.70683 7.6043977,229.26024 7.3062729,229.23432"
       id="path74"
       sodipodi:nodetypes="cc" />
    <ellipse
       style="opacity:0.234513;fill:#ffffff;stroke:none;stroke-width:0.485057;stroke-linecap:round"
       id="path93-5"
       cx="46.871902"
       cy="222.69778"
       rx="6.2866325"
       ry="1.4677452" />
    <ellipse
       style="opacity:0.234513;fill:#000000;stroke:none;stroke-width:0.303651;stroke-linecap:round"
       id="path93-5-4"
       cx="73.079712"
       cy="237.62637"
       rx="3.9354992"
       ry="0.9188242" />
    <ellipse
       style="opacity:0.234513;fill:#000000;stroke:none;stroke-width:0.303651;stroke-linecap:round"
       id="path93-5-4-7"
       cx="196.00014"
       cy="226.30515"
       rx="3.9354992"
       ry="0.9188242" />
    <path
       d="m 81.529425,230.0012 c -17.878145,3.21662 -57.248363,5.32058 -58.54151,4.8404"
       style="opacity:0.338272;fill:none;stroke:#000000;stroke-width:0.771001;stroke-linecap:round"
       id="path1"
       sodipodi:nodetypes="cc" />
    <path
       d="m 85.297955,232.41334 c -12.672783,4.11596 -33.943327,6.89574 -37.079336,6.119"
       style="opacity:0.474074;fill:none;stroke:#ffffff;stroke-width:0.771001;stroke-linecap:round"
       id="path1-9"
       sodipodi:nodetypes="cc" />
    <path
       d="m 93.775407,233.43372 c -5.442517,2.82293 -10.849845,5.65246 -20.092252,7.76291"
       style="opacity:0.259259;fill:none;stroke:#ffffff;stroke-width:0.771001;stroke-linecap:round"
       id="path1-9-9"
       sodipodi:nodetypes="cc" />
    <path
       d="m 101.73035,234.09315 -8.036902,7.30627"
       style="opacity:0.558025;fill:none;stroke:#000000;stroke-width:0.771001;stroke-linecap:round"
       id="path1-9-9-4"
       sodipodi:nodetypes="cc" />
    <path
       style="opacity:0.402469;fill:none;stroke:#ffffff;stroke-width:0.771001;stroke-linecap:round"
       d="m 106.67158,233.98339 3.56181,7.58026"
       id="path78" />
    <path
       style="opacity:0.558025;fill:#ffffff;stroke:#000000;stroke-width:0.771001;stroke-linecap:round"
       d="m 114.16052,233.52675 9.31549,7.21494"
       id="path79" />
    <path
       style="opacity:0.558025;fill:#ffffff;stroke:#000000;stroke-width:0.771001;stroke-linecap:round"
       d="m 119.91421,231.70018 14.7952,7.76292"
       id="path80" />
    <path
       style="opacity:0.261728;fill:#ffffff;stroke:#000000;stroke-width:0.771001;stroke-linecap:round"
       d="m 125.39391,230.87823 27.03321,6.30166"
       id="path81" />
    <path
       style="opacity:0.402469;fill:none;stroke:#ffffff;stroke-width:0.771001;stroke-linecap:round"
       d="m 131.60424,225.58118 53.15314,-3.74447"
       id="path82" />
    <path
       style="opacity:0.261728;fill:#ffffff;stroke:#000000;stroke-width:0.771001;stroke-linecap:round"
       d="m 132.15221,222.1107 29.86439,-4.93174"
       id="path83" />
    <path
       style="opacity:0.558025;fill:#ffffff;stroke:#000000;stroke-width:0.771001;stroke-linecap:round"
       d="M 75.163282,224.39391 29.864391,220.8321"
       id="path86" />
    <path
       style="opacity:0.473451;fill:#ffffff;stroke:none;stroke-width:0.771001;stroke-linecap:round"
       d="m 104.77585,199.10243 c 0.27398,11.32473 1.18727,18.53967 5.93634,10.95941 4.74908,-7.58026 1.46126,-13.79059 -0.82195,-13.42528 -2.28321,0.36532 -5.11439,2.46587 -5.11439,2.46587 z"
       id="path88" />
    <path
       style="opacity:0.075;fill:#000000;stroke:none;stroke-width:0.771001;stroke-linecap:round"
       d="m 85.430986,190.99832 c 0.844031,-1.95663 0.817797,-3.98894 5.42463,-5.61837 l 3.09979,1.61448 -3.03521,5.94126 z"
       id="path89"
       sodipodi:nodetypes="ccccc" />
    <path
       style="opacity:0.03539823;fill:#000000;stroke:none;stroke-width:0.771001;stroke-linecap:round"
       d="m 125.9737,188.74307 c 1.09594,5.4797 9.10102,14.37133 9.92298,14.73664 0.82195,0.36531 3.47048,-6.30166 3.19649,-8.0369 -0.27398,-1.73524 -2.77214,-8.97741 -2.77214,-8.97741 z"
       id="path90"
       sodipodi:nodetypes="csscc" />
    <path
       style="opacity:0.234513;fill:#008000;stroke:none;stroke-width:0.771001;stroke-linecap:round"
       d="m 110.39056,229.63145 c 10.31034,-1.07845 13.26021,-2.64544 18.79348,-5.9225 -1.65851,2.12172 -4.66877,3.73653 -7.21495,5.52537 -6.54668,2.36962 -11.44356,2.2515 -11.57853,0.39713 z"
       id="path91"
       sodipodi:nodetypes="cccc" />
    <path
       style="opacity:0.234513;fill:#008000;stroke:none;stroke-width:0.771001;stroke-linecap:round"
       d="m 95.117755,230.48253 c 5.365315,1.51006 13.340435,-0.96738 18.061815,-2.40374 -2.03429,1.64451 -4.98059,3.07444 -9.9328,4.03238 -5.191941,-0.55408 -5.090391,-0.62124 -8.129015,-1.62864 z"
       id="path92"
       sodipodi:nodetypes="cccc" />
    <ellipse
       style="opacity:0.234513;fill:#ffffff;stroke:none;stroke-width:0.331819;stroke-linecap:round"
       id="path93"
       cx="141.24138"
       cy="215.9917"
       rx="5.2533693"
       ry="0.82195574" />
    <path
       style="opacity:0.234513;fill:#000000;stroke:none;stroke-width:0.771001;stroke-linecap:round"
       d="m -8.4022141,243.48155 c 0,0 80.7209931,15.52585 90.3171391,21.18819 9.596144,5.66235 11.393022,5.66237 11.393022,5.66237 H -8.402214 Z"
       id="path94" />
    <path
       style="opacity:0.234513;fill:#000000;stroke:none;stroke-width:0.771001;stroke-linecap:round"
       d="m -8.4022134,169.32288 c 0,0 67.0184714,-2.61964 132.2637234,-11.50738 52.55796,-7.15947 94.54069,16.52012 94.54069,16.52012 l -1e-5,-22.73046 H -8.4022135 Z"
       id="path95"
       sodipodi:nodetypes="cscccc" />
  </g>
</svg>
