<?xml version="1.0" encoding="UTF-8" standalone="no"?>
<!-- Created with Inkscape (http://www.inkscape.org/) -->

<svg
   width="200mm"
   height="200mm"
   viewBox="0 0 400 400"
   version="1.1"
   id="svg1"
   inkscape:version="1.3 (0e150ed6c4, 2023-07-21)"
   sodipodi:docname="Artsy.svg"
   xmlns:inkscape="http://www.inkscape.org/namespaces/inkscape"
   xmlns:sodipodi="http://sodipodi.sourceforge.net/DTD/sodipodi-0.dtd"
   xmlns:xlink="http://www.w3.org/1999/xlink"
   xmlns="http://www.w3.org/2000/svg"
   xmlns:svg="http://www.w3.org/2000/svg">
  <sodipodi:namedview
     id="namedview1"
     pagecolor="#ffffff"
     bordercolor="#000000"
     borderopacity="0.25"
     inkscape:showpageshadow="2"
     inkscape:pageopacity="0.0"
     inkscape:pagecheckerboard="0"
     inkscape:deskcolor="#d1d1d1"
     inkscape:document-units="mm"
     inkscape:zoom="0.36213173"
     inkscape:cx="479.10742"
     inkscape:cy="680.69152"
     inkscape:window-width="1920"
     inkscape:window-height="1009"
     inkscape:window-x="-8"
     inkscape:window-y="-8"
     inkscape:window-maximized="1"
     inkscape:current-layer="layer1" />
  <defs
     id="defs1">
    <linearGradient
       id="linearGradient19"
       inkscape:collect="always">
      <stop
         style="stop-color:#ff0000;stop-opacity:1;"
         offset="0"
         id="stop19" />
      <stop
         style="stop-color:#ff7412;stop-opacity:1;"
         offset="1"
         id="stop20" />
    </linearGradient>
    <linearGradient
       id="linearGradient17"
       inkscape:collect="always">
      <stop
         style="stop-color:#008000;stop-opacity:1;"
         offset="0"
         id="stop17" />
      <stop
         style="stop-color:#92fc92;stop-opacity:1;"
         offset="1"
         id="stop18" />
    </linearGradient>
    <linearGradient
       id="linearGradient15"
       inkscape:collect="always">
      <stop
         style="stop-color:#ff7f2a;stop-opacity:1;"
         offset="0.50803858"
         id="stop15" />
      <stop
         style="stop-color:#ffc32a;stop-opacity:1;"
         offset="1"
         id="stop16" />
    </linearGradient>
    <linearGradient
       id="linearGradient13"
       inkscape:collect="always">
      <stop
         style="stop-color:#005000;stop-opacity:1;"
         offset="0"
         id="stop13" />
      <stop
         style="stop-color:#009700;stop-opacity:1;"
         offset="1"
         id="stop14" />
    </linearGradient>
    <linearGradient
       id="linearGradient11"
       inkscape:collect="always">
      <stop
         style="stop-color:#ff2b12;stop-opacity:1;"
         offset="0"
         id="stop11" />
      <stop
         style="stop-color:#ff813f;stop-opacity:1;"
         offset="1"
         id="stop12" />
    </linearGradient>
    <linearGradient
       id="linearGradient9"
       inkscape:collect="always">
      <stop
         style="stop-color:#008000;stop-opacity:1;"
         offset="0"
         id="stop9" />
      <stop
         style="stop-color:#000000;stop-opacity:1;"
         offset="1"
         id="stop10" />
    </linearGradient>
    <linearGradient
       inkscape:collect="always"
       xlink:href="#linearGradient9"
       id="linearGradient10"
       x1="177.90781"
       y1="199.42992"
       x2="250.97053"
       y2="199.42992"
       gradientUnits="userSpaceOnUse" />
    <linearGradient
       inkscape:collect="always"
       xlink:href="#linearGradient11"
       id="linearGradient12"
       x1="105.33911"
       y1="205.72127"
       x2="237.84679"
       y2="205.72127"
       gradientUnits="userSpaceOnUse" />
    <linearGradient
       inkscape:collect="always"
       xlink:href="#linearGradient13"
       id="linearGradient14"
       x1="102.65297"
       y1="214.63597"
       x2="135.53159"
       y2="214.63597"
       gradientUnits="userSpaceOnUse" />
    <linearGradient
       inkscape:collect="always"
       xlink:href="#linearGradient15"
       id="linearGradient16"
       x1="-166.94814"
       y1="225.03326"
       x2="199.51579"
       y2="225.03326"
       gradientUnits="userSpaceOnUse" />
    <linearGradient
       inkscape:collect="always"
       xlink:href="#linearGradient17"
       id="linearGradient18"
       x1="155.33658"
       y1="187.04075"
       x2="517.64935"
       y2="187.04075"
       gradientUnits="userSpaceOnUse" />
    <linearGradient
       inkscape:collect="always"
       xlink:href="#linearGradient19"
       id="linearGradient20"
       x1="209.8323"
       y1="187.04049"
       x2="442.78053"
       y2="187.04049"
       gradientUnits="userSpaceOnUse" />
  </defs>
  <g
     inkscape:label="Layer 1"
     inkscape:groupmode="layer"
     id="layer1"
     transform="translate(-1.8265683,16.804428)">
    <rect
       style="opacity:1;fill:#000000;stroke:none;stroke-width:0.771001;stroke-linecap:round"
       id="rect9"
       width="400"
       height="400"
       x="1.8265682"
       y="-16.804428" />
    <path
       d="m 310.15142,-20.457435 a 207.49815,207.49815 0 0 0 -36.03191,3.152262 207.49815,207.49815 0 0 0 -34.93689,9.3611861 207.49815,207.49815 0 0 0 -32.78043,15.2858887 207.49815,207.49815 0 0 0 -29.62816,20.7460202 207.49815,207.49815 0 0 0 -21.43745,21.437451 208.9594,208.9594 0 0 1 1.49965,0.925009 208.9594,208.9594 0 0 1 9.9565,6.971667 208.9594,208.9594 0 0 1 9.53481,7.539075 208.9594,208.9594 0 0 1 9.08007,8.080643 208.9594,208.9594 0 0 1 8.59482,8.594825 208.9594,208.9594 0 0 1 8.08065,9.080066 208.9594,208.9594 0 0 1 7.53907,9.534822 208.9594,208.9594 0 0 1 0.69195,0.98805 132.24355,132.24355 0 0 1 6.32675,-7.709091 132.24355,132.24355 0 0 1 20.0396,-16.446541 132.24355,132.24355 0 0 1 22.8632,-12.220443 132.24355,132.24355 0 0 1 24.80831,-7.525122 132.24355,132.24355 0 0 1 25.79946,-2.541447 132.24355,132.24355 0 0 1 9.43405,0.336931 132.24355,132.24355 0 0 1 9.38599,1.00924 132.24355,132.24355 0 0 1 9.29039,1.676384 132.24355,132.24355 0 0 1 9.14673,2.334224 132.24355,132.24355 0 0 1 8.95707,2.981214 132.24355,132.24355 0 0 1 8.72143,3.612699 132.24355,132.24355 0 0 1 8.44186,4.225582 132.24355,132.24355 0 0 1 8.11837,4.817277 132.24355,132.24355 0 0 1 7.75457,5.383651 132.24355,132.24355 0 0 1 7.35045,5.923669 132.24355,132.24355 0 0 1 6.90914,6.432682 132.24355,132.24355 0 0 1 6.43268,6.909141 132.24355,132.24355 0 0 1 5.92367,7.35045 132.24355,132.24355 0 0 1 5.38365,7.75457 132.24355,132.24355 0 0 1 4.81728,8.11837 132.24355,132.24355 0 0 1 4.22558,8.44186 132.24355,132.24355 0 0 1 3.6127,8.72143 132.24355,132.24355 0 0 1 2.98122,8.95708 132.24355,132.24355 0 0 1 2.33422,9.14673 132.24355,132.24355 0 0 1 1.67638,9.29038 132.24355,132.24355 0 0 1 1.00924,9.38599 132.24355,132.24355 0 0 1 0.33694,9.43405 132.24355,132.24355 0 0 1 -2.54145,25.79946 132.24355,132.24355 0 0 1 -7.52512,24.80831 132.24355,132.24355 0 0 1 -12.22045,22.86268 132.24355,132.24355 0 0 1 -16.44654,20.04013 132.24355,132.24355 0 0 1 -20.0396,16.44602 132.24355,132.24355 0 0 1 -22.86321,12.22044 132.24355,132.24355 0 0 1 -24.80778,7.52564 132.24355,132.24355 0 0 1 -25.79946,2.54093 132.24355,132.24355 0 0 1 -25.79946,-2.54093 132.24355,132.24355 0 0 1 -24.80831,-7.52564 132.24355,132.24355 0 0 1 -21.69686,-11.59722 208.9594,208.9594 0 0 1 -14.87145,31.89262 208.9594,208.9594 0 0 1 -20.89226,29.83694 208.9594,208.9594 0 0 1 -2.56729,2.56729 207.49815,207.49815 0 0 0 6.8864,4.82193 207.49815,207.49815 0 0 0 32.78043,15.28588 207.49815,207.49815 0 0 0 34.93689,9.36119 207.49815,207.49815 0 0 0 36.03191,3.15278 207.49815,207.49815 0 0 0 36.03139,-3.15278 207.49815,207.49815 0 0 0 34.93689,-9.36119 207.49815,207.49815 0 0 0 32.78042,-15.28588 207.49815,207.49815 0 0 0 29.62817,-20.74551 207.49815,207.49815 0 0 0 25.5757,-25.5757 207.49815,207.49815 0 0 0 20.74602,-29.62816 207.49815,207.49815 0 0 0 15.28589,-32.78043 207.49815,207.49815 0 0 0 9.36118,-34.93689 207.49815,207.49815 0 0 0 3.15227,-36.03191 207.49815,207.49815 0 0 0 -0.35089,-12.06489 207.49815,207.49815 0 0 0 -1.05213,-12.02408 207.49815,207.49815 0 0 0 -1.74925,-11.94242 207.49815,207.49815 0 0 0 -2.44067,-11.82098 207.49815,207.49815 0 0 0 -3.12384,-11.65872 207.49815,207.49815 0 0 0 -3.79667,-11.45718 207.49815,207.49815 0 0 0 -4.45658,-11.21741 207.49815,207.49815 0 0 0 -5.10098,-10.939381 207.49815,207.49815 0 0 0 -5.72833,-10.624158 207.49815,207.49815 0 0 0 -6.33656,-10.272758 207.49815,207.49815 0 0 0 -6.9231,-9.887252 207.49815,207.49815 0 0 0 -7.48636,-9.468156 207.49815,207.49815 0 0 0 -8.0238,-9.016504 207.49815,207.49815 0 0 0 -8.53488,-8.534879 207.49815,207.49815 0 0 0 -9.01702,-8.0238 207.49815,207.49815 0 0 0 -9.46764,-7.486364 207.49815,207.49815 0 0 0 -9.88725,-6.923092 207.49815,207.49815 0 0 0 -10.27328,-6.3365642 207.49815,207.49815 0 0 0 -10.62364,-5.7283326 207.49815,207.49815 0 0 0 -10.93938,-5.1009806 207.49815,207.49815 0 0 0 -11.2174,-4.4565755 207.49815,207.49815 0 0 0 -11.45719,-3.7966671 207.49815,207.49815 0 0 0 -11.65872,-3.123841 207.49815,207.49815 0 0 0 -11.82098,-2.440678 207.49815,207.49815 0 0 0 -11.94242,-1.749247 207.49815,207.49815 0 0 0 -12.02408,-1.052132 207.49815,207.49815 0 0 0 -12.06489,-0.350883 z"
       style="opacity:1;fill:url(#linearGradient18);stroke-width:1.20975;stroke-linecap:round;stroke:#000000"
       id="path8" />
    <path
       d="m 210.3141,101.23953 a 208.9594,208.9594 0 0 1 6.28024,8.96844 208.9594,208.9594 0 0 1 6.381,10.34563 208.9594,208.9594 0 0 1 5.76864,10.69857 208.9594,208.9594 0 0 1 5.13716,11.01638 208.9594,208.9594 0 0 1 4.48758,11.29647 208.9594,208.9594 0 0 1 3.82302,11.53779 208.9594,208.9594 0 0 1 3.14606,11.74089 208.9594,208.9594 0 0 1 2.45825,11.90418 208.9594,208.9594 0 0 1 1.76165,12.02666 208.9594,208.9594 0 0 1 1.05937,12.10882 208.9594,208.9594 0 0 1 0.35346,12.14965 208.9594,208.9594 0 0 1 -3.17448,36.28564 208.9594,208.9594 0 0 1 -9.42733,35.18286 208.9594,208.9594 0 0 1 -0.52193,1.1188 132.24355,132.24355 0 0 0 21.69686,11.59722 132.24355,132.24355 0 0 0 24.80831,7.52564 132.24355,132.24355 0 0 0 25.79946,2.54093 132.24355,132.24355 0 0 0 25.79946,-2.54093 132.24355,132.24355 0 0 0 24.80778,-7.52564 132.24355,132.24355 0 0 0 22.86321,-12.22044 132.24355,132.24355 0 0 0 20.0396,-16.44602 132.24355,132.24355 0 0 0 16.44654,-20.04013 132.24355,132.24355 0 0 0 12.22045,-22.86268 132.24355,132.24355 0 0 0 7.52512,-24.80831 132.24355,132.24355 0 0 0 2.54145,-25.79946 132.24355,132.24355 0 0 0 -0.33694,-9.43405 132.24355,132.24355 0 0 0 -1.00924,-9.38599 132.24355,132.24355 0 0 0 -1.67638,-9.29038 132.24355,132.24355 0 0 0 -2.33422,-9.14673 132.24355,132.24355 0 0 0 -2.98122,-8.95708 132.24355,132.24355 0 0 0 -3.6127,-8.72143 132.24355,132.24355 0 0 0 -4.22558,-8.44186 132.24355,132.24355 0 0 0 -4.81728,-8.11837 132.24355,132.24355 0 0 0 -5.38365,-7.75457 132.24355,132.24355 0 0 0 -5.92367,-7.35045 132.24355,132.24355 0 0 0 -6.43268,-6.909141 132.24355,132.24355 0 0 0 -6.90914,-6.432682 132.24355,132.24355 0 0 0 -7.35045,-5.923669 132.24355,132.24355 0 0 0 -7.75457,-5.383651 132.24355,132.24355 0 0 0 -8.11837,-4.817277 132.24355,132.24355 0 0 0 -8.44186,-4.225582 132.24355,132.24355 0 0 0 -8.72143,-3.612699 132.24355,132.24355 0 0 0 -8.95707,-2.981214 132.24355,132.24355 0 0 0 -9.14673,-2.334224 132.24355,132.24355 0 0 0 -9.29039,-1.676384 132.24355,132.24355 0 0 0 -9.38599,-1.00924 132.24355,132.24355 0 0 0 -9.43405,-0.336931 132.24355,132.24355 0 0 0 -25.79946,2.541447 132.24355,132.24355 0 0 0 -24.80831,7.525122 132.24355,132.24355 0 0 0 -22.8632,12.220443 132.24355,132.24355 0 0 0 -20.0396,16.446541 132.24355,132.24355 0 0 0 -6.32675,7.709091 z"
       style="opacity:1;stroke-width:0.771001;stroke-linecap:round;fill:url(#linearGradient20);stroke:#000000"
       id="path9" />
    <path
       d="m 210.3141,101.23953 a 132.24355,132.24355 0 0 0 -10.11928,12.33051 132.24355,132.24355 0 0 0 -12.22044,22.86321 132.24355,132.24355 0 0 0 -7.52564,24.80779 132.24355,132.24355 0 0 0 -2.54093,25.79945 132.24355,132.24355 0 0 0 2.54093,25.79946 132.24355,132.24355 0 0 0 7.52564,24.80831 132.24355,132.24355 0 0 0 12.22044,22.86268 132.24355,132.24355 0 0 0 16.44603,20.04013 132.24355,132.24355 0 0 0 20.0396,16.44602 132.24355,132.24355 0 0 0 1.16634,0.62322 208.9594,208.9594 0 0 0 0.52193,-1.1188 208.9594,208.9594 0 0 0 9.42733,-35.18286 208.9594,208.9594 0 0 0 3.17448,-36.28564 208.9594,208.9594 0 0 0 -0.35346,-12.14965 208.9594,208.9594 0 0 0 -1.05937,-12.10882 208.9594,208.9594 0 0 0 -1.76165,-12.02666 208.9594,208.9594 0 0 0 -2.45825,-11.90418 208.9594,208.9594 0 0 0 -3.14606,-11.74089 208.9594,208.9594 0 0 0 -3.82302,-11.53779 208.9594,208.9594 0 0 0 -4.48758,-11.29647 208.9594,208.9594 0 0 0 -5.13716,-11.01638 208.9594,208.9594 0 0 0 -5.76864,-10.69857 208.9594,208.9594 0 0 0 -6.381,-10.34563 208.9594,208.9594 0 0 0 -6.28024,-8.96844 z"
       style="opacity:1;fill:url(#linearGradient10);stroke-width:0.771001;stroke-linecap:round;stroke:#000000"
       id="path7" />
    <path
       d="m 199.51579,361.91716 a 208.9594,208.9594 0 0 0 2.56729,-2.56729 208.9594,208.9594 0 0 0 20.89226,-29.83694 208.9594,208.9594 0 0 0 14.87145,-31.89262 132.24355,132.24355 0 0 1 -1.16634,-0.62322 132.24355,132.24355 0 0 1 -20.0396,-16.44602 132.24355,132.24355 0 0 1 -16.44603,-20.04013 132.24355,132.24355 0 0 1 -12.22044,-22.86268 132.24355,132.24355 0 0 1 -7.52564,-24.80831 132.24355,132.24355 0 0 1 -2.54093,-25.79946 132.24355,132.24355 0 0 1 2.54093,-25.79945 132.24355,132.24355 0 0 1 7.52564,-24.80779 132.24355,132.24355 0 0 1 12.22044,-22.86321 132.24355,132.24355 0 0 1 10.11928,-12.33051 208.9594,208.9594 0 0 0 -0.69195,-0.98805 208.9594,208.9594 0 0 0 -7.53907,-9.534822 208.9594,208.9594 0 0 0 -8.08065,-9.080066 208.9594,208.9594 0 0 0 -8.59482,-8.594825 208.9594,208.9594 0 0 0 -9.08007,-8.080643 208.9594,208.9594 0 0 0 -9.53481,-7.539075 208.9594,208.9594 0 0 0 -9.9565,-6.971667 208.9594,208.9594 0 0 0 -1.49965,-0.925009 207.49815,207.49815 0 0 0 -4.13825,4.137732 207.49815,207.49815 0 0 0 -20.7455,29.628166 207.49815,207.49815 0 0 0 -15.28589,32.780949 207.49815,207.49815 0 0 0 -9.36171,34.93688 207.49815,207.49815 0 0 0 -0.46612,5.32836 93.520287,93.520287 0 0 1 2.80087,2.56677 93.520287,93.520287 0 0 1 5.5118,6.01513 93.520287,93.520287 0 0 1 4.96663,6.47299 93.520287,93.520287 0 0 1 4.38371,6.88072 93.520287,93.520287 0 0 1 3.76721,7.23677 93.520287,93.520287 0 0 1 3.12229,7.53752 93.520287,93.520287 0 0 1 2.45308,7.78092 93.520287,93.520287 0 0 1 1.76578,7.96541 93.520287,93.520287 0 0 1 1.06505,8.08891 93.520287,93.520287 0 0 1 0.35606,8.15041 93.520287,93.520287 0 0 1 -3.18689,24.20524 93.520287,93.520287 0 0 1 -9.34258,22.55521 93.520287,93.520287 0 0 1 -0.8754,1.14102 207.49815,207.49815 0 0 0 8.32611,17.85524 207.49815,207.49815 0 0 0 20.7455,29.62816 207.49815,207.49815 0 0 0 25.5757,25.5757 207.49815,207.49815 0 0 0 22.74176,15.92358 z"
       style="opacity:1;fill:url(#linearGradient12);stroke-width:0.771001;stroke-linecap:round;stroke:#000000"
       id="path6" />
    <path
       d="m 199.51579,361.91716 a 207.49815,207.49815 0 0 1 -22.74176,-15.92358 207.49815,207.49815 0 0 1 -25.5757,-25.5757 207.49815,207.49815 0 0 1 -20.7455,-29.62816 207.49815,207.49815 0 0 1 -8.32611,-17.85524 93.520287,93.520287 0 0 1 -13.98674,18.22782 93.520287,93.520287 0 0 1 -19.368848,14.86163 93.520287,93.520287 0 0 1 -22.555212,9.3431 93.520287,93.520287 0 0 1 -24.204724,3.18637 93.520287,93.520287 0 0 1 -24.204725,-3.18637 93.520287,93.520287 0 0 1 -22.5557287,-9.3431 93.520287,93.520287 0 0 1 -19.3683273,-14.86163 93.520287,93.520287 0 0 1 -14.862141,-19.36884 93.520287,93.520287 0 0 1 -9.343099,-22.55521 93.520287,93.520287 0 0 1 -3.186369,-24.20524 93.520287,93.520287 0 0 1 3.186369,-24.20473 93.520287,93.520287 0 0 1 9.343099,-22.55521 93.520287,93.520287 0 0 1 14.862141,-19.36884 93.520287,93.520287 0 0 1 19.3683273,-14.86215 93.520287,93.520287 0 0 1 22.5557287,-9.34258 93.520287,93.520287 0 0 1 24.204725,-3.18637 93.520287,93.520287 0 0 1 8.150923,0.35554 93.520287,93.520287 0 0 1 8.088395,1.06505 93.520287,93.520287 0 0 1 7.965406,1.76578 93.520287,93.520287 0 0 1 7.78092,2.4536 93.520287,93.520287 0 0 1 7.537525,3.12177 93.520287,93.520287 0 0 1 7.236767,3.76721 93.520287,93.520287 0 0 1 6.880717,4.38372 93.520287,93.520287 0 0 1 6.472991,4.96662 93.520287,93.520287 0 0 1 3.21427,2.94504 207.49815,207.49815 0 0 1 0.46612,-5.32836 207.49815,207.49815 0 0 1 9.36171,-34.93688 207.49815,207.49815 0 0 1 15.28589,-32.780949 207.49815,207.49815 0 0 1 20.7455,-29.628166 207.49815,207.49815 0 0 1 4.13825,-4.137732 208.9594,208.9594 0 0 0 -8.84597,-5.456514 208.9594,208.9594 0 0 0 -10.69858,-5.76864 A 208.9594,208.9594 0 0 0 124.77565,33.163581 208.9594,208.9594 0 0 0 113.47918,28.675483 208.9594,208.9594 0 0 0 101.94139,24.852461 208.9594,208.9594 0 0 0 90.200502,21.7064 208.9594,208.9594 0 0 0 78.296319,19.248152 208.9594,208.9594 0 0 0 66.269663,17.486502 208.9594,208.9594 0 0 0 54.160842,16.427135 208.9594,208.9594 0 0 0 42.011196,16.073669 208.9594,208.9594 0 0 0 5.7255551,19.248152 208.9594,208.9594 0 0 0 -29.45731,28.675483 208.9594,208.9594 0 0 0 -62.468732,44.068859 208.9594,208.9594 0 0 0 -92.30567,64.961124 a 208.9594,208.9594 0 0 0 -25.75553,25.755534 208.9594,208.9594 0 0 0 -20.89175,29.836942 208.9594,208.9594 0 0 0 -15.39338,33.01142 208.9594,208.9594 0 0 0 -9.42733,35.18286 208.9594,208.9594 0 0 0 -3.17448,36.28513 208.9594,208.9594 0 0 0 3.17448,36.28564 208.9594,208.9594 0 0 0 9.42733,35.18286 208.9594,208.9594 0 0 0 15.39338,33.01142 208.9594,208.9594 0 0 0 20.89175,29.83694 208.9594,208.9594 0 0 0 25.75553,25.75554 208.9594,208.9594 0 0 0 29.836938,20.89174 208.9594,208.9594 0 0 0 33.011422,15.3939 208.9594,208.9594 0 0 0 35.1828651,9.42681 208.9594,208.9594 0 0 0 36.2856409,3.175 208.9594,208.9594 0 0 0 36.285123,-3.175 208.9594,208.9594 0 0 0 35.182861,-9.42681 208.9594,208.9594 0 0 0 33.01143,-15.3939 208.9594,208.9594 0 0 0 29.83693,-20.89174 208.9594,208.9594 0 0 0 23.18825,-23.18825 z"
       style="opacity:1;fill:url(#linearGradient16);stroke-width:0.771001;stroke-linecap:round;stroke:#000000"
       id="path4" />
    <path
       d="m 122.12672,272.93448 a 93.520287,93.520287 0 0 0 0.8754,-1.14102 93.520287,93.520287 0 0 0 9.34258,-22.55521 93.520287,93.520287 0 0 0 3.18689,-24.20524 93.520287,93.520287 0 0 0 -0.35606,-8.15041 93.520287,93.520287 0 0 0 -1.06505,-8.08891 93.520287,93.520287 0 0 0 -1.76578,-7.96541 93.520287,93.520287 0 0 0 -2.45308,-7.78092 93.520287,93.520287 0 0 0 -3.12229,-7.53752 93.520287,93.520287 0 0 0 -3.76721,-7.23677 93.520287,93.520287 0 0 0 -4.38371,-6.88072 93.520287,93.520287 0 0 0 -4.96663,-6.47299 93.520287,93.520287 0 0 0 -5.5118,-6.01513 93.520287,93.520287 0 0 0 -2.80087,-2.56677 207.49815,207.49815 0 0 0 -2.68614,30.70303 207.49815,207.49815 0 0 0 3.15226,36.03191 207.49815,207.49815 0 0 0 9.36171,34.93689 207.49815,207.49815 0 0 0 6.95978,14.92519 z"
       style="opacity:1;fill:url(#linearGradient14);stroke-width:0.345063;stroke-linecap:round"
       id="path5" />
    <path
       d="m 122.12672,272.93448 a 207.49815,207.49815 0 0 1 -6.95978,-14.92519 207.49815,207.49815 0 0 1 -9.36171,-34.93689 207.49815,207.49815 0 0 1 -3.15226,-36.03191 207.49815,207.49815 0 0 1 2.68614,-30.70303 93.520287,93.520287 0 0 0 -3.21427,-2.94504 93.520287,93.520287 0 0 0 -6.472991,-4.96662 93.520287,93.520287 0 0 0 -6.880717,-4.38372 93.520287,93.520287 0 0 0 -7.236767,-3.76721 93.520287,93.520287 0 0 0 -7.537525,-3.12177 93.520287,93.520287 0 0 0 -7.78092,-2.4536 93.520287,93.520287 0 0 0 -7.965406,-1.76578 93.520287,93.520287 0 0 0 -8.088395,-1.06505 93.520287,93.520287 0 0 0 -8.150923,-0.35554 93.520287,93.520287 0 0 0 -24.204725,3.18637 93.520287,93.520287 0 0 0 -22.5557287,9.34258 93.520287,93.520287 0 0 0 -19.3683273,14.86215 93.520287,93.520287 0 0 0 -14.862141,19.36884 93.520287,93.520287 0 0 0 -9.343099,22.55521 93.520287,93.520287 0 0 0 -3.186369,24.20473 93.520287,93.520287 0 0 0 3.186369,24.20524 93.520287,93.520287 0 0 0 9.343099,22.55521 93.520287,93.520287 0 0 0 14.862141,19.36884 93.520287,93.520287 0 0 0 19.3683273,14.86163 93.520287,93.520287 0 0 0 22.5557287,9.3431 93.520287,93.520287 0 0 0 24.204725,3.18637 93.520287,93.520287 0 0 0 24.204724,-3.18637 93.520287,93.520287 0 0 0 22.555212,-9.3431 93.520287,93.520287 0 0 0 19.368848,-14.86163 93.520287,93.520287 0 0 0 13.98674,-18.22782 z"
       style="opacity:1;fill:#000000;stroke-width:0.345063;stroke-linecap:round"
       id="path3" />
  </g>
</svg>
