<?xml version="1.0" encoding="UTF-8" standalone="no"?>
<!-- Created with Inkscape (http://www.inkscape.org/) -->

<!-- Original: 210 x 297 -->
<svg
   width="147mm"
   height="208mm"
   viewBox="0 0 210 297"
   version="1.1"
   id="svg1"
   xml:space="preserve"
   inkscape:version="1.3 (0e150ed6c4, 2023-07-21)"
   sodipodi:docname="LandscapeTutorial.svg"
   xmlns:inkscape="http://www.inkscape.org/namespaces/inkscape"
   xmlns:sodipodi="http://sodipodi.sourceforge.net/DTD/sodipodi-0.dtd"
   xmlns:xlink="http://www.w3.org/1999/xlink"
   xmlns="http://www.w3.org/2000/svg"
   xmlns:svg="http://www.w3.org/2000/svg"><sodipodi:namedview
     id="namedview1"
     pagecolor="#ffffff"
     bordercolor="#000000"
     borderopacity="0.25"
     inkscape:showpageshadow="2"
     inkscape:pageopacity="0.0"
     inkscape:pagecheckerboard="0"
     inkscape:deskcolor="#d1d1d1"
     inkscape:document-units="mm"
     inkscape:zoom="0.70710678"
     inkscape:cx="140.00714"
     inkscape:cy="589.01995"
     inkscape:window-width="1920"
     inkscape:window-height="1009"
     inkscape:window-x="-8"
     inkscape:window-y="-8"
     inkscape:window-maximized="1"
     inkscape:current-layer="layer2" /><defs
     id="defs1"><linearGradient
       id="linearGradient30"
       inkscape:collect="always"><stop
         style="stop-color:#ffffff;stop-opacity:1;"
         offset="0"
         id="stop30" /><stop
         style="stop-color:#ffffff;stop-opacity:0;"
         offset="1"
         id="stop31" /></linearGradient><linearGradient
       id="linearGradient28"
       inkscape:collect="always"><stop
         style="stop-color:#ffffff;stop-opacity:1;"
         offset="0"
         id="stop28" /><stop
         style="stop-color:#ffffff;stop-opacity:0;"
         offset="1"
         id="stop29" /></linearGradient><inkscape:path-effect
       effect="spiro"
       id="path-effect14"
       is_visible="true"
       lpeversion="1" /><inkscape:path-effect
       effect="spiro"
       id="path-effect13"
       is_visible="true"
       lpeversion="1" /><linearGradient
       id="linearGradient7"
       inkscape:collect="always"><stop
         style="stop-color:#61ab6f;stop-opacity:1;"
         offset="0"
         id="stop7" /><stop
         style="stop-color:#3c796d;stop-opacity:1;"
         offset="1"
         id="stop8" /></linearGradient><linearGradient
       id="linearGradient4"
       inkscape:collect="always"><stop
         style="stop-color:#f8fbe9;stop-opacity:1;"
         offset="0"
         id="stop4" /><stop
         style="stop-color:#000000;stop-opacity:1;"
         offset="1"
         id="stop5" /></linearGradient><linearGradient
       id="linearGradient373"
       inkscape:collect="always"><stop
         style="stop-color:#f7ff36;stop-opacity:1;"
         offset="0"
         id="stop373" /><stop
         style="stop-color:#8abf65;stop-opacity:1;"
         offset="1"
         id="stop374" /></linearGradient><linearGradient
       id="linearGradient371"
       inkscape:collect="always"><stop
         style="stop-color:#f7ff36;stop-opacity:1;"
         offset="0"
         id="stop371" /><stop
         style="stop-color:#8abf65;stop-opacity:1;"
         offset="1"
         id="stop372" /></linearGradient><inkscape:path-effect
       effect="spiro"
       id="path-effect356"
       is_visible="true"
       lpeversion="1" /><filter
       inkscape:collect="always"
       style="color-interpolation-filters:sRGB"
       id="filter370"
       x="-0.32481217"
       y="-0.38255177"
       width="1.6496243"
       height="1.7651035"><feGaussianBlur
         inkscape:collect="always"
         stdDeviation="18.293136"
         id="feGaussianBlur370" /></filter><linearGradient
       inkscape:collect="always"
       xlink:href="#linearGradient371"
       id="linearGradient372"
       x1="112.24315"
       y1="154.84789"
       x2="102.12223"
       y2="212.47005"
       gradientUnits="userSpaceOnUse" /><linearGradient
       inkscape:collect="always"
       xlink:href="#linearGradient373"
       id="linearGradient374"
       x1="95.141342"
       y1="181.6897"
       x2="99.611298"
       y2="271.20648"
       gradientUnits="userSpaceOnUse" /><linearGradient
       inkscape:collect="always"
       xlink:href="#linearGradient4"
       id="linearGradient5"
       x1="80.225098"
       y1="179.12373"
       x2="84.521568"
       y2="180.74368"
       gradientUnits="userSpaceOnUse" /><linearGradient
       inkscape:collect="always"
       xlink:href="#linearGradient7"
       id="linearGradient8"
       x1="44.33955"
       y1="181.6897"
       x2="47.419212"
       y2="201.65338"
       gradientUnits="userSpaceOnUse" /><linearGradient
       inkscape:collect="always"
       xlink:href="#linearGradient7"
       id="linearGradient11"
       gradientUnits="userSpaceOnUse"
       x1="44.33955"
       y1="181.6897"
       x2="47.419212"
       y2="201.65338"
       gradientTransform="matrix(1,0,0,1.5071826,13.829844,-120.5743)" /><linearGradient
       inkscape:collect="always"
       xlink:href="#linearGradient7"
       id="linearGradient12"
       gradientUnits="userSpaceOnUse"
       gradientTransform="matrix(1,0,0,1.5071826,68.552595,-100.50481)"
       x1="44.33955"
       y1="181.6897"
       x2="47.419212"
       y2="201.65338" /><linearGradient
       inkscape:collect="always"
       xlink:href="#linearGradient7"
       id="linearGradient13"
       gradientUnits="userSpaceOnUse"
       gradientTransform="matrix(1,0,0,0.89471473,87.77372,35.95905)"
       x1="44.33955"
       y1="181.6897"
       x2="47.419212"
       y2="201.65338" /><linearGradient
       inkscape:collect="always"
       xlink:href="#linearGradient7"
       id="linearGradient14"
       gradientUnits="userSpaceOnUse"
       x1="44.33955"
       y1="181.6897"
       x2="44.180561"
       y2="212.85561"
       gradientTransform="matrix(1.6749656,0,0,1.4930914,-10.026849,-61.651663)" /><linearGradient
       inkscape:collect="always"
       xlink:href="#linearGradient7"
       id="linearGradient15"
       gradientUnits="userSpaceOnUse"
       gradientTransform="matrix(1.6749656,0,0,1.4930914,11.500003,-26.275006)"
       x1="44.33955"
       y1="181.6897"
       x2="44.180561"
       y2="212.85561" /><linearGradient
       inkscape:collect="always"
       xlink:href="#linearGradient7"
       id="linearGradient16"
       gradientUnits="userSpaceOnUse"
       gradientTransform="matrix(1.6749656,0,0,1.4930914,74.338545,-46.476911)"
       x1="44.33955"
       y1="181.6897"
       x2="44.180561"
       y2="212.85561" /><filter
       inkscape:collect="always"
       style="color-interpolation-filters:sRGB"
       id="filter370-7"
       x="-0.41680918"
       y="-0.49090244"
       width="1.8336184"
       height="1.9818049"><feGaussianBlur
         inkscape:collect="always"
         stdDeviation="23.474328"
         id="feGaussianBlur370-6" /></filter><linearGradient
       inkscape:collect="always"
       xlink:href="#linearGradient28"
       id="linearGradient29"
       x1="108.64928"
       y1="44.306084"
       x2="166.78351"
       y2="88.084831"
       gradientUnits="userSpaceOnUse" /><linearGradient
       inkscape:collect="always"
       xlink:href="#linearGradient30"
       id="linearGradient31"
       x1="127.66634"
       y1="59.899895"
       x2="189.98253"
       y2="107.60751"
       gradientUnits="userSpaceOnUse" /></defs><g
     inkscape:groupmode="layer"
     id="layer2"
     inkscape:label="Background"><path
       id="path353"
       style="opacity:1;fill:#3bbff2;stroke-width:2.15767708;stroke-linecap:round;stroke-linejoin:round;fill-opacity:1;stroke:none;stroke-dasharray:none"
       d="M 104.99979 20.823018 A 67.583023 70.688187 0 0 0 37.416838 91.51121 L 37.416838 200.73969 A 67.583023 70.688187 0 0 0 104.99979 271.42788 A 67.583023 70.688187 0 0 0 172.58326 200.73969 L 172.58326 91.51121 A 67.583023 70.688187 0 0 0 104.99979 20.823018 z " /></g><g
     inkscape:label="Layer 1"
     inkscape:groupmode="layer"
     id="layer1"><path
       id="path28"
       style="opacity:1;fill:url(#linearGradient29);fill-opacity:1;stroke-width:1.86659;stroke-linecap:round;stroke-linejoin:round"
       d="m 141.87868,32.284851 c -2.45887,2.854509 -1.52601,8.687325 -1.52601,8.687325 0,0 -3.77806,-4.115808 -8.64236,-1.309481 -4.8643,2.806328 0.93534,6.735506 0.93534,6.735506 0,0 -11.18546,-8.04213 -16.08223,-5.246191 -5.27163,3.009982 -3.93619,17.032473 -3.93619,17.780827 0,0.748352 -4.37324,-1.037516 -5.80919,0.264583 -1.37291,1.24494 -0.7935,5.503024 -0.7935,5.503024 0,0 -4.32994,-1.967204 -5.67924,-0.623217 -1.533055,1.527021 0.68264,6.45542 0.68264,6.45542 0,0 -9.870656,-3.525392 -13.241521,-0.667293 -3.896416,3.303705 -1.742059,15.226094 -1.742059,15.226094 l 10.867554,25.852172 75.671346,3.38118 V 91.51121 C 172.58,67.609126 161.02867,45.327648 141.87868,32.284851 Z"
       sodipodi:nodetypes="ccscasacacaccccc" /><path
       id="path29"
       style="opacity:1;fill:url(#linearGradient31);stroke:none;stroke-width:0.359;stroke-linecap:round;stroke-linejoin:round;stroke-dasharray:none;stroke-opacity:1"
       d="m 142.74839,69.222648 c 0,0 -2.84273,-3.57921 -4.48971,-2.899851 -1.62279,0.669382 -1.12286,5.145192 -1.12286,5.145192 0,0 -6.27699,-5.809123 -9.16734,-4.116145 -3.02544,1.772102 -0.93541,10.476997 -0.93541,10.476997 0,0 -7.8622,-6.940164 -11.22515,-4.677074 -2.83595,1.908447 0.0889,10.254511 0.0889,10.254511 0,0 10.3879,24.543742 11.32334,24.356652 0.55901,-0.1118 25.41722,1.77174 45.36312,3.1533 V 91.51121 c -0.002,-13.728131 -3.82583,-27.158597 -11.00449,-38.651387 -1.36546,3.6846 -1.43092,9.440767 -1.43092,9.440767 0,0 -4.67065,-8.770202 -8.98035,-9.822047 -2.94337,-0.718372 -6.80952,0.637222 -8.53398,3.128354 -2.58333,3.731841 0.11485,13.615751 0.11485,13.615751 z"
       sodipodi:nodetypes="cacacacsccccaac" /><path
       id="path362"
       style="opacity:1;fill:#a6e1f6;fill-opacity:1;stroke-width:1.86659;stroke-linecap:round;stroke-linejoin:round"
       d="m 58.231588,76.129203 c -6.880299,0.08825 -20.572514,9.789316 -20.81475,15.382007 V 175.5004 L 172.58326,186.94104 V 91.51121 c -0.009,-1.858571 0.14866,11.84268 0,9.9906 C 159.23819,95.79056 162.55273,98.789946 142.62729,94.778616 133.32793,93.745356 118.82504,86.535872 109.784,78.786405 100.74296,71.03694 91.96063,85.244427 79.30317,87.31095 66.645711,89.377474 65.870615,80.077967 60.704305,76.719865 60.058516,76.300102 59.214488,76.116596 58.231588,76.129203 Z"
       sodipodi:nodetypes="scccccsssss"
       inkscape:label="path362" /><path
       id="path360"
       style="opacity:1;fill:#3bbff2;stroke-width:1.86659;stroke-linecap:round;stroke-linejoin:round;fill-opacity:1"
       d="M 141.9195 89.473092 C 140.11077 89.59296 138.27119 90.232375 136.26197 91.693628 C 128.22507 97.538641 127.31153 101.00941 104.99979 101.74004 C 82.688054 102.47067 90.049545 96.260191 77.994206 97.904102 C 65.938868 99.548012 67.948442 117.63077 59.546236 119.82266 C 51.144031 122.01454 37.416838 115.62188 37.416838 115.62188 L 37.416838 200.73969 A 67.583023 70.688187 0 0 0 104.99979 271.42788 A 67.583023 70.688187 0 0 0 172.58326 200.73969 L 172.58326 91.51121 C 172.58326 91.51121 172.58327 95.347034 161.10334 94.251095 C 152.4934 93.429139 147.3457 89.113486 141.9195 89.473092 z " /><path
       id="path358"
       style="opacity:1;fill:#008de6;fill-opacity:1;stroke-width:2.64583;stroke-linecap:round;stroke-linejoin:round"
       d="m 143.02021,113.69541 c -30.19635,17.91438 -31.32079,-0.62313 -46.523741,2.55338 -11.596107,2.4229 -19.41532,22.75282 -33.297226,20.56095 -13.881904,-2.19188 -9.863315,-1.64391 -13.151135,0 -3.287818,1.64391 -12.63127,9.31571 -12.63127,9.31571 v 54.61424 c -2e-6,39.03998 30.257906,70.68815 67.582952,70.68819 37.32525,2.6e-4 67.58347,-31.648 67.58347,-70.68819 l 0,-87.59257 c -15.00089,-4.91567 -17.23376,-6.76622 -29.56305,0.54829 z"
       sodipodi:nodetypes="sssscscscs" /><path
       id="path357"
       style="opacity:1;fill:#076ad8;fill-opacity:1;stroke-width:2.64583;stroke-linecap:round;stroke-linejoin:round"
       d="M 64.104097 127.73122 C 61.121657 127.71124 57.902018 128.04239 54.248885 128.77302 C 39.636354 131.69553 37.416838 140.82861 37.416838 140.82861 L 37.416838 200.73969 A 67.583023 70.688187 0 0 0 104.99979 271.42788 A 67.583023 70.688187 0 0 0 172.58326 200.73969 L 172.58326 139.00185 C 172.58326 139.00185 168.04406 142.28971 163.66029 141.74174 C 159.27654 141.19376 148.50003 133.70487 141.74174 129.86908 C 134.98343 126.03329 122.3799 133.15696 115.43895 137.72338 C 108.498 142.28979 103.20132 142.83785 89.867383 136.07955 C 79.866933 131.01083 73.051419 127.79116 64.104097 127.73122 z " /><path
       id="path356"
       style="opacity:1;fill:#0b397e;fill-opacity:1;stroke-width:2.64583;stroke-linecap:round;stroke-linejoin:round"
       d="m 121.20212,161.42193 c -4.28243,0.8739 -7.16624,8.65443 -10.4649,7.90014 -6.59731,-1.50859 -9.47725,-4.20656 -15.77144,-6.69324 -11.616358,-4.58933 -24.015298,-7.1686 -36.494414,-7.69152 -7.082585,-0.29678 -14.27455,0.0781 -21.054528,2.14768 v 43.6547 c -2e-6,39.03998 30.257906,70.68815 67.582952,70.68819 37.32525,2.6e-4 67.58347,-31.648 67.58347,-70.68819 v -39.53957 c 0,0 -9.22306,-4.82191 -14.118,-4.3161 -6.54501,0.67632 -10.94498,9.48695 -17.29817,9.50916 -6.43351,0.0225 -13.24527,-6.34252 -19.96497,-4.97125 z"
       sodipodi:nodetypes="assscscscasa" /><path
       id="path354"
       style="opacity:1;fill:url(#linearGradient372);stroke-width:2.64583;stroke-linecap:round;stroke-linejoin:round"
       d="m 73.555466,151.07963 c -13.324725,-1.32989 -36.138628,17.5457 -36.138628,17.5457 v 32.11436 c 0,39.03998 30.257906,70.68815 67.582952,70.68819 37.32525,2.6e-4 67.58347,-31.648 67.58347,-70.68819 -0.14428,-0.69453 -14.72289,-13.05089 -23.93737,-14.92062 -8.0732,-1.63815 -15.23446,7.83473 -24.4092,3.86409 -15.60947,-6.75547 -29.549922,-36.4945 -50.681224,-38.60353 z"
       sodipodi:nodetypes="acsccasa" /><g
       inkscape:groupmode="layer"
       id="layer3"
       inkscape:label="House"><path
         style="opacity:1;fill:#ffffff;stroke-width:2.64583;stroke-linecap:round;stroke-linejoin:round"
         d="m 75.139885,181.85284 -0.02422,-4.132 2.958425,-3.63775 3.128283,3.69335 v 4.04202 l -2.751503,1.58859 z"
         id="path1"
         sodipodi:nodetypes="ccccccc" /><path
         style="opacity:1;fill:#000000;stroke-width:2.64583;stroke-linecap:round;stroke-linejoin:round"
         d="m 78.076093,181.70693 -0.002,-2.96186 h 1.074708 l 0.0088,2.94656 -0.290605,0.63089 z"
         id="path2"
         sodipodi:nodetypes="cccccc" /><path
         style="opacity:1;fill:url(#linearGradient5);stroke-width:2.64583;stroke-linecap:round;stroke-linejoin:round"
         d="m 81.202376,177.77644 2.441576,0.26729 0.118815,4.17743 -2.070407,0.79556 -0.489984,-1.19826 z"
         id="path3"
         sodipodi:nodetypes="cccccc" /><path
         style="opacity:1;fill:#7e271d;stroke:#7d271d;stroke-width:0.0529167;stroke-linecap:round;stroke-linejoin:round;stroke-dasharray:none;stroke-opacity:1;fill-opacity:1"
         d="m 83.643949,178.04373 -2.65379,-3.1362 -2.916069,-0.82444 3.128283,3.69335 z"
         id="path4"
         sodipodi:nodetypes="ccccc" /><path
         style="opacity:1;fill:none;stroke:#7d271d;stroke-width:0.079375;stroke-linecap:round;stroke-linejoin:round;stroke-dasharray:none;stroke-opacity:1"
         d="m 78.07409,174.08309 -2.958425,3.63775 v 0"
         id="path5" /></g><g
       inkscape:groupmode="layer"
       id="layer4"
       inkscape:label="Trees in the back"><ellipse
         style="opacity:1;fill:url(#linearGradient8);fill-opacity:1;stroke:none;stroke-width:0.0529167;stroke-linecap:round;stroke-linejoin:round;stroke-dasharray:none;stroke-opacity:1"
         id="path6"
         cx="44.33955"
         cy="200.54901"
         rx="6.0276752"
         ry="18.859318" /><path
         style="opacity:1;fill:none;fill-opacity:1;stroke:#3c796d;stroke-width:0.453;stroke-linecap:round;stroke-linejoin:round;stroke-dasharray:none;stroke-opacity:1"
         d="M 44.643137,201.5327 44.065959,185.53367"
         id="path8"
         sodipodi:nodetypes="cc" /><path
         style="opacity:1;fill:none;fill-opacity:1;stroke:#3c796d;stroke-width:0.353;stroke-linecap:round;stroke-linejoin:round;stroke-dasharray:none;stroke-opacity:1"
         d="m 44.354548,193.53318 -2.959944,-2.67963"
         id="path9" /><path
         style="opacity:1;fill:none;fill-opacity:1;stroke:#3c796d;stroke-width:0.353;stroke-linecap:round;stroke-linejoin:round;stroke-dasharray:none;stroke-opacity:1"
         d="m 44.354548,189.91744 2.040287,-2.23755"
         id="path10" /><ellipse
         style="fill:url(#linearGradient11);fill-opacity:1;stroke:none;stroke-width:0.0649644;stroke-linecap:round;stroke-linejoin:round;stroke-dasharray:none;stroke-opacity:1"
         id="path6-7"
         cx="58.169399"
         cy="181.6897"
         rx="6.0276752"
         ry="28.424437" /><path
         style="fill:none;fill-opacity:1;stroke:#3c796d;stroke-width:0.618378;stroke-linecap:round;stroke-linejoin:round;stroke-dasharray:none;stroke-opacity:1"
         d="M 58.472981,188.8718 57.895803,159.05881"
         id="path8-5"
         sodipodi:nodetypes="cc" /><path
         style="fill:none;fill-opacity:1;stroke:#3c796d;stroke-width:0.359;stroke-linecap:round;stroke-linejoin:round;stroke-dasharray:none;stroke-opacity:1"
         d="m 57.904708,171.44955 -2.358945,-8.44274"
         id="path9-3" /><path
         style="fill:none;fill-opacity:1;stroke:#3c796d;stroke-width:0.305;stroke-linecap:round;stroke-linejoin:round;stroke-dasharray:none;stroke-opacity:1"
         d="m 58.176713,180.8326 -4.120871,-6.71465"
         id="path9-3-4" /><path
         style="fill:none;fill-opacity:1;stroke:#3c796d;stroke-width:0.456;stroke-linecap:round;stroke-linejoin:round;stroke-dasharray:none;stroke-opacity:1"
         d="M 58.418845,176.82035 61.664074,168.541"
         id="path10-8" /><ellipse
         style="fill:url(#linearGradient12);fill-opacity:1;stroke:none;stroke-width:0.0649644;stroke-linecap:round;stroke-linejoin:round;stroke-dasharray:none;stroke-opacity:1"
         id="path6-7-0"
         cx="112.89214"
         cy="201.7592"
         rx="6.0276752"
         ry="28.424437" /><path
         style="fill:none;fill-opacity:1;stroke:#3c796d;stroke-width:0.518;stroke-linecap:round;stroke-linejoin:round;stroke-dasharray:none;stroke-opacity:1"
         d="M 113.19573,208.94129 112.61856,179.1283"
         id="path8-5-0"
         sodipodi:nodetypes="cc" /><path
         style="fill:none;fill-opacity:1;stroke:#3c796d;stroke-width:0.35311;stroke-linecap:round;stroke-linejoin:round;stroke-dasharray:none;stroke-opacity:1"
         d="m 112.6804,191.57198 -2.46482,-4.78199"
         id="path9-3-2" /><path
         style="fill:none;fill-opacity:1;stroke:#3c796d;stroke-width:0.415;stroke-linecap:round;stroke-linejoin:round;stroke-dasharray:none;stroke-opacity:1"
         d="m 112.51576,183.02055 -1.6002,-2.72214"
         id="path9-3-2-6" /><path
         style="fill:none;fill-opacity:1;stroke:#3c796d;stroke-width:0.35311;stroke-linecap:round;stroke-linejoin:round;stroke-dasharray:none;stroke-opacity:1"
         d="m 112.78587,184.05048 2.46482,-4.78199"
         id="path9-3-2-2" /><path
         style="fill:none;fill-opacity:1;stroke:#3c796d;stroke-width:0.105;stroke-linecap:round;stroke-linejoin:round;stroke-dasharray:none;stroke-opacity:1"
         d="m 112.89947,200.90209 -4.12087,-6.71465"
         id="path9-3-4-1" /><path
         style="fill:none;fill-opacity:1;stroke:#3c796d;stroke-width:0.407;stroke-linecap:round;stroke-linejoin:round;stroke-dasharray:none;stroke-opacity:1"
         d="m 113.1172,196.91424 3.47669,-5.06211"
         id="path10-8-1" /><ellipse
         style="fill:url(#linearGradient13);fill-opacity:1;stroke:none;stroke-width:0.0500535;stroke-linecap:round;stroke-linejoin:round;stroke-dasharray:none;stroke-opacity:1"
         id="path6-7-0-3"
         cx="132.11328"
         cy="215.39322"
         rx="6.0276752"
         ry="16.873711" /><path
         style="fill:none;fill-opacity:1;stroke:#3c796d;stroke-width:0.399107;stroke-linecap:round;stroke-linejoin:round;stroke-dasharray:none;stroke-opacity:1"
         d="m 132.40186,219.65675 -0.57717,-17.698"
         id="path8-5-0-3"
         sodipodi:nodetypes="cc" /><path
         style="fill:none;fill-opacity:1;stroke:#3c796d;stroke-width:0.321877;stroke-linecap:round;stroke-linejoin:round;stroke-dasharray:none;stroke-opacity:1;marker-end:"
         d="m 131.86162,207.00154 -1.56904,-3.30309"
         id="path9-3-2-0" /><path
         style="fill:none;fill-opacity:1;stroke:#3c796d;stroke-width:0.295;stroke-linecap:round;stroke-linejoin:round;stroke-dasharray:none;stroke-opacity:1"
         d="m 132.15259,211.78572 3.18229,-3.84487"
         id="path9-3-2-0-8" /><path
         style="fill:none;fill-opacity:1;stroke:#3c796d;stroke-width:0.313584;stroke-linecap:round;stroke-linejoin:round;stroke-dasharray:none;stroke-opacity:1"
         d="m 132.17935,207.68656 1.73115,-4.25684"
         id="path10-8-1-9" /></g><path
       id="path355"
       style="opacity:1;fill:url(#linearGradient374);fill-opacity:1;stroke-width:2.64583;stroke-linecap:round;stroke-linejoin:round"
       d="m 78.076094,181.70704 c -16.546907,-0.3432 -36.046776,19.92325 -39.764221,29.73328 v 10e-4 l 0.610816,3.44371 5.17e-4,0.002 c 0.535709,2.72472 1.22472,5.41398 2.06344,8.05377 0.38342,1.21454 0.787526,2.41771 1.229899,3.59978 1.028382,2.74197 2.219606,5.41403 3.566707,8.00055 0.50048,0.9614 1.017956,1.91087 1.558561,2.84324 1.537145,2.65147 3.239427,5.19428 5.095813,7.61194 0.563273,0.73309 1.139269,1.45422 1.729094,2.16214 2.008746,2.40693 4.171196,4.66866 6.472473,6.76961 0.616621,0.56426 1.239129,1.12094 1.874821,1.6614 2.476382,2.10175 5.091888,4.01753 7.826912,5.73298 0.55498,0.34907 1.11048,0.69682 1.67535,1.02939 2.976921,1.75026 6.076394,3.26199 9.271786,4.52221 0.378381,0.14941 0.755984,0.2999 1.137398,0.44235 3.442427,1.28535 6.978875,2.27648 10.574548,2.96364 0.182884,0.0348 0.366488,0.067 0.549837,0.10026 3.781286,0.6886 7.611785,1.03902 11.449945,1.04748 19.94773,-7.8e-4 38.8762,-9.21877 51.71674,-25.18555 4.33294,-7.45346 -51.71648,-65.7002 -78.640436,-64.53529 -3.7e-5,0 0,1.1e-4 0,1.1e-4 z"
       sodipodi:nodetypes="sccccccccccccccccccccss" /><ellipse
       style="display:inline;opacity:0.626113;mix-blend-mode:normal;fill:#ffffff;fill-opacity:1;stroke-width:2.64583;stroke-linecap:round;stroke-linejoin:round;filter:url(#filter370)"
       id="path370"
       cx="104.99979"
       cy="101.74004"
       rx="67.582947"
       ry="57.382465"
       transform="matrix(0.47704707,-0.16683564,0.13407727,0.38337832,13.534715,27.46483)"
       sodipodi:insensitive="true" /><ellipse
       style="opacity:0.271605;mix-blend-mode:normal;fill:#000000;fill-opacity:1;stroke-width:2.64583;stroke-linecap:round;stroke-linejoin:round;filter:url(#filter370-7)"
       id="path370-8"
       cx="104.99979"
       cy="101.74004"
       rx="67.582947"
       ry="57.382465"
       transform="matrix(0.25721141,0.04171983,-0.02018767,0.1957722,115.39946,151.17484)"
       sodipodi:insensitive="true" /><path
       id="path13"
       style="opacity:1;fill:#f5ebc0;fill-opacity:1;stroke:none;stroke-width:4.518;stroke-linecap:round;stroke-linejoin:round;stroke-dasharray:none;stroke-opacity:1"
       d="m 79.154342,181.69744 c -0.331568,-0.005 -0.66053,-0.004 -0.98392,0.008 l -0.09457,0.002 c -1.072818,0.80846 -1.873672,1.97084 -2.246891,3.26129 -0.373219,1.29045 -0.31649,2.7016 0.159164,3.9579 0.625313,1.65159 1.929746,2.9739 3.405477,3.94395 1.47573,0.97005 3.130514,1.62705 4.763016,2.30063 1.632503,0.67358 3.27237,1.37966 4.69067,2.4319 1.4183,1.05223 2.614266,2.49464 3.048393,4.20646 0.384634,1.51666 0.144113,3.1447 -0.448035,4.593 -0.592147,1.44829 -1.518294,2.73589 -2.523877,3.93464 -1.005583,1.19875 -2.098681,2.32338 -3.084049,3.5388 -0.985369,1.21543 -1.964561,2.51566 -2.388485,4.01371 -0.575475,2.0336 -0.634394,4.2966 -0.09353,6.33967 0.544571,2.05708 1.807175,3.92728 3.240112,5.50044 3.073464,3.37422 7.14303,5.74231 11.099581,8.01766 5.149302,2.96128 11.621762,3.69896 16.284262,7.23761 2.33125,1.76932 4.42617,4.11522 4.91912,6.8952 0.65103,3.67146 -0.92015,7.66978 -2.96943,10.78489 -2.56664,3.90154 -5.63767,5.3527 -10.93156,8.76287 5.55714,-2.2e-4 11.02801,-0.74068 16.31735,-2.11822 5.38896,-6.12933 9.18861,-13.89605 6.97508,-20.89842 -3.37792,-10.68586 -27.09814,-15.44943 -30.971543,-17.81601 -1.875107,-1.14566 -3.615617,-2.67346 -4.786272,-4.53306 -1.163113,-1.84762 -1.897177,-4.0547 -2.005045,-6.23528 -0.0917,-1.85375 0.485679,-3.70648 1.173055,-5.44308 0.687376,-1.7366 1.560483,-3.39269 2.331641,-5.09374 0.771157,-1.70106 1.445535,-3.46747 1.701704,-5.31751 0.25617,-1.85004 0.06979,-3.80253 -0.804602,-5.45289 -0.931725,-1.75859 -2.568977,-3.04923 -4.322216,-3.99098 -1.75324,-0.94174 -3.649937,-1.58188 -5.474085,-2.37763 -1.824147,-0.79575 -3.616931,-1.77828 -4.946985,-3.25871 -0.665026,-0.74022 -1.205085,-1.60074 -1.524971,-2.543 -0.319887,-0.94226 -0.414101,-1.96814 -0.211874,-2.94246 0.125972,-0.60692 0.36589,-1.18949 0.703317,-1.70945 z"
       sodipodi:nodetypes="cccsssssssssaaaasaaccaaaassssssssscc"
       inkscape:label="Road" /><g
       inkscape:groupmode="layer"
       id="layer5"
       inkscape:label="Trees in the front"
       sodipodi:insensitive="true"><path
         id="path6-6"
         style="fill:url(#linearGradient14);fill-opacity:1;stroke:none;stroke-width:0.0836834;stroke-linecap:round;stroke-linejoin:round;stroke-dasharray:none;stroke-opacity:1"
         d="m 64.240523,209.62751 a 10.096148,28.158686 0 0 0 -10.096541,28.15901 10.096148,28.158686 0 0 0 0.680062,10.13323 c 1.822953,2.12137 3.76021,4.13236 5.815149,6.00842 0.61662,0.56426 1.239129,1.12094 1.874821,1.6614 2.348779,1.99345 4.826487,3.81353 7.40885,5.46013 a 10.096148,28.158686 0 0 0 4.413684,-23.26318 10.096148,28.158686 0 0 0 -10.096025,-28.15901 z" /><path
         style="fill:none;fill-opacity:1;stroke:#3c796d;stroke-width:0.55824;stroke-linecap:round;stroke-linejoin:round;stroke-dasharray:none;stroke-opacity:1"
         d="m 63.931106,246.34571 4.793617,-16.6584"
         id="path9-5-0"
         sodipodi:nodetypes="cc" /><path
         style="fill:none;fill-opacity:1;stroke:#3c796d;stroke-width:0.716382;stroke-linecap:round;stroke-linejoin:round;stroke-dasharray:none;stroke-opacity:1"
         d="M 64.10308,253.46246 63.782117,215.36708"
         id="path8-55"
         sodipodi:nodetypes="cc" /><path
         style="fill:none;fill-opacity:1;stroke:#3c796d;stroke-width:0.55824;stroke-linecap:round;stroke-linejoin:round;stroke-dasharray:none;stroke-opacity:1"
         d="M 63.878019,234.02728 59.307689,218.5313"
         id="path9-5"
         sodipodi:nodetypes="cc" /><path
         style="fill:none;fill-opacity:1;stroke:#3c796d;stroke-width:0.55824;stroke-linecap:round;stroke-linejoin:round;stroke-dasharray:none;stroke-opacity:1"
         d="m 63.878019,227.98286 3.546568,-5.92402"
         id="path10-2"
         sodipodi:nodetypes="cc" /><path
         id="path6-6-2"
         style="fill:url(#linearGradient16);fill-opacity:1;stroke:none;stroke-width:0.0836834;stroke-linecap:round;stroke-linejoin:round;stroke-dasharray:none;stroke-opacity:1"
         d="m 148.60591,224.80226 a 10.096148,28.158686 0 0 0 -10.09654,28.15901 10.096148,28.158686 0 0 0 0.68006,10.13323 c 1.82296,2.12137 3.76021,4.13236 5.81515,6.00842 0.61662,0.56426 1.23913,1.12094 1.87482,1.6614 2.34878,1.99345 4.82649,3.81353 7.40885,5.46013 a 10.096148,28.158686 0 0 0 4.41369,-23.26318 10.096148,28.158686 0 0 0 -10.09603,-28.15901 z" /><path
         style="fill:none;fill-opacity:1;stroke:#3c796d;stroke-width:0.55824;stroke-linecap:round;stroke-linejoin:round;stroke-dasharray:none;stroke-opacity:1"
         d="m 148.2965,261.52046 4.79361,-16.6584"
         id="path9-5-0-7"
         sodipodi:nodetypes="cc" /><path
         style="fill:none;fill-opacity:1;stroke:#3c796d;stroke-width:0.716382;stroke-linecap:round;stroke-linejoin:round;stroke-dasharray:none;stroke-opacity:1"
         d="m 148.46847,268.63721 -0.32096,-38.09538"
         id="path8-55-2"
         sodipodi:nodetypes="cc" /><path
         style="fill:none;fill-opacity:1;stroke:#3c796d;stroke-width:0.55824;stroke-linecap:round;stroke-linejoin:round;stroke-dasharray:none;stroke-opacity:1"
         d="m 148.24341,249.20203 -4.57033,-15.49598"
         id="path9-5-8"
         sodipodi:nodetypes="cc" /><path
         style="fill:none;fill-opacity:1;stroke:#3c796d;stroke-width:0.55824;stroke-linecap:round;stroke-linejoin:round;stroke-dasharray:none;stroke-opacity:1"
         d="m 148.24341,243.15761 3.54657,-5.92402"
         id="path10-2-4"
         sodipodi:nodetypes="cc" /><path
         id="path6-6-9"
         style="fill:url(#linearGradient15);fill-opacity:1;stroke:none;stroke-width:0.0836834;stroke-linecap:round;stroke-linejoin:round;stroke-dasharray:none;stroke-opacity:1"
         d="m 85.767375,245.00417 c -4.385117,0.0226 -8.286427,8.03252 -9.621213,19.6825 1.676063,0.83162 3.404869,1.50242 5.1419,2.18748 0.37838,0.14941 0.755984,0.2999 1.137398,0.44235 3.442423,1.28535 6.978879,2.27648 10.574548,2.96364 0.182884,0.0348 0.366489,0.067 0.549837,0.10026 0.756095,0.13769 1.515616,0.25163 2.275314,0.36225 -0.450304,-14.55836 -4.818572,-25.73703 -10.057784,-25.73848 z"
         sodipodi:nodetypes="cccccccc" /><path
         style="fill:none;fill-opacity:1;stroke:#3c796d;stroke-width:0.55824;stroke-linecap:round;stroke-linejoin:round;stroke-dasharray:none;stroke-opacity:1"
         d="m 88.066139,269.19066 2.185436,-4.12669"
         id="path9-5-0-1"
         sodipodi:nodetypes="cc" /><path
         style="fill:none;fill-opacity:1;stroke:#3c796d;stroke-width:0.716382;stroke-linecap:round;stroke-linejoin:round;stroke-dasharray:none;stroke-opacity:1"
         d="M 85.7756,270.36795 85.308969,250.74374"
         id="path8-55-7"
         sodipodi:nodetypes="cc" /><path
         style="fill:none;fill-opacity:1;stroke:#3c796d;stroke-width:0.55824;stroke-linecap:round;stroke-linejoin:round;stroke-dasharray:none;stroke-opacity:1"
         d="M 85.49648,266.98374 80.834541,253.90796"
         id="path9-5-00"
         sodipodi:nodetypes="cc" /><path
         style="fill:none;fill-opacity:1;stroke:#3c796d;stroke-width:0.55824;stroke-linecap:round;stroke-linejoin:round;stroke-dasharray:none;stroke-opacity:1"
         d="m 85.404871,263.35952 3.546568,-5.92402"
         id="path10-2-1"
         sodipodi:nodetypes="cc" /></g></g><path
     id="path15"
     style="opacity:1;fill:#ffffff;fill-opacity:1;stroke-width:1.86659;stroke-linecap:round;stroke-linejoin:round"
     d="m 172.58326,186.94104 v 13.79865 c 0,39.04019 -30.25822,70.68845 -67.58347,70.68819 -37.325046,-4e-5 -67.582952,-31.64821 -67.582952,-70.68819 l 0,-13.79865 h -9.091952 c -0.715534,0 -1.291911,0.28819 -1.291911,0.64596 v 95.25052 c 0,0.35776 0.576377,0.64595 1.291911,0.64595 H 185.38352 c 0.71553,0 1.29191,-0.28819 1.29191,-0.64595 V 187.587 c 0,-0.35777 -0.57638,-0.64596 -1.29191,-0.64596 z"
     sodipodi:nodetypes="cccscscssssssssc" /></svg>
