<?xml version="1.0" encoding="UTF-8" standalone="no"?>
<!-- Created with Inkscape (http://www.inkscape.org/) -->

<svg
   width="218.40221mm"
   height="164.02583mm"
   viewBox="0 0 218.40221 164.02583"
   version="1.1"
   id="svg1"
   xml:space="preserve"
   inkscape:version="1.3 (0e150ed6c4, 2023-07-21)"
   sodipodi:docname="GlassBall.svg"
   xmlns:inkscape="http://www.inkscape.org/namespaces/inkscape"
   xmlns:sodipodi="http://sodipodi.sourceforge.net/DTD/sodipodi-0.dtd"
   xmlns:xlink="http://www.w3.org/1999/xlink"
   xmlns="http://www.w3.org/2000/svg"
   xmlns:svg="http://www.w3.org/2000/svg"><sodipodi:namedview
     id="namedview1"
     pagecolor="#ffffff"
     bordercolor="#000000"
     borderopacity="0.25"
     inkscape:showpageshadow="2"
     inkscape:pageopacity="0.0"
     inkscape:pagecheckerboard="0"
     inkscape:deskcolor="#d1d1d1"
     inkscape:document-units="mm"
     inkscape:zoom="1"
     inkscape:cx="406"
     inkscape:cy="333.5"
     inkscape:window-width="1920"
     inkscape:window-height="1009"
     inkscape:window-x="-8"
     inkscape:window-y="-8"
     inkscape:window-maximized="1"
     inkscape:current-layer="layer2" /><defs
     id="defs1"><inkscape:path-effect
       effect="powermask"
       id="path-effect75"
       is_visible="true"
       lpeversion="1"
       uri="#mask-powermask-path-effect75"
       invert="false"
       hide_mask="false"
       background="true"
       background_color="#ffffffff" /><inkscape:path-effect
       effect="powermask"
       id="path-effect74"
       is_visible="true"
       lpeversion="1"
       uri="#mask-powermask-path-effect74"
       invert="false"
       hide_mask="false"
       background="true"
       background_color="#ffffffff" /><linearGradient
       id="linearGradient72"
       inkscape:collect="always"><stop
         style="stop-color:#f0e443;stop-opacity:1;"
         offset="0"
         id="stop71" /><stop
         style="stop-color:#3cbaa1;stop-opacity:1;"
         offset="1"
         id="stop72" /></linearGradient><linearGradient
       id="linearGradient68"
       inkscape:collect="always"><stop
         style="stop-color:#f6b410;stop-opacity:1;"
         offset="0"
         id="stop68" /><stop
         style="stop-color:#ed375e;stop-opacity:1;"
         offset="1"
         id="stop69" /></linearGradient><linearGradient
       id="linearGradient66"
       inkscape:collect="always"><stop
         style="stop-color:#aed470;stop-opacity:1;"
         offset="0"
         id="stop66" /><stop
         style="stop-color:#ffffff;stop-opacity:0;"
         offset="1"
         id="stop67" /></linearGradient><inkscape:path-effect
       effect="powermask"
       id="path-effect65"
       is_visible="true"
       lpeversion="1"
       uri="#mask-powermask-path-effect65"
       invert="false"
       hide_mask="false"
       background="true"
       background_color="#ffffffff" /><linearGradient
       id="linearGradient63"
       inkscape:collect="always"><stop
         style="stop-color:#4dd8ee;stop-opacity:1;"
         offset="0"
         id="stop63" /><stop
         style="stop-color:#783997;stop-opacity:1;"
         offset="1"
         id="stop64" /></linearGradient><linearGradient
       id="linearGradient51"
       inkscape:collect="always"><stop
         style="stop-color:#f1e4e9;stop-opacity:1;"
         offset="0"
         id="stop51" /><stop
         style="stop-color:#f1e4e9;stop-opacity:0;"
         offset="1"
         id="stop52" /></linearGradient><inkscape:path-effect
       effect="powermask"
       id="path-effect49"
       is_visible="true"
       lpeversion="1"
       uri="#mask-powermask-path-effect49"
       invert="false"
       hide_mask="false"
       background="true"
       background_color="#ffffffff" /><inkscape:path-effect
       effect="powermask"
       id="path-effect47"
       is_visible="true"
       lpeversion="1"
       uri="#mask-powermask-path-effect47"
       invert="false"
       hide_mask="false"
       background="true"
       background_color="#ffffffff" /><inkscape:path-effect
       effect="powermask"
       id="path-effect46"
       is_visible="true"
       lpeversion="1"
       uri="#mask-powermask-path-effect46"
       invert="false"
       hide_mask="false"
       background="true"
       background_color="#ffffffff" /><inkscape:path-effect
       effect="powermask"
       id="path-effect45"
       is_visible="true"
       lpeversion="1"
       uri="#mask-powermask-path-effect45"
       invert="false"
       hide_mask="false"
       background="true"
       background_color="#ffffffff" /><inkscape:path-effect
       effect="powermask"
       id="path-effect44"
       is_visible="true"
       lpeversion="1"
       uri="#mask-powermask-path-effect44"
       invert="false"
       hide_mask="false"
       background="true"
       background_color="#ffffffff" /><linearGradient
       id="linearGradient28"
       inkscape:collect="always"><stop
         style="stop-color:#4dd8ee;stop-opacity:1;"
         offset="0"
         id="stop28" /><stop
         style="stop-color:#ffffff;stop-opacity:1;"
         offset="1"
         id="stop29" /></linearGradient><linearGradient
       id="linearGradient26"
       inkscape:collect="always"><stop
         style="stop-color:#f578df;stop-opacity:1;"
         offset="0.20121951"
         id="stop26" /><stop
         style="stop-color:#ffffff;stop-opacity:1;"
         offset="1"
         id="stop27" /></linearGradient><linearGradient
       id="linearGradient22"
       inkscape:collect="always"><stop
         style="stop-color:#783997;stop-opacity:1;"
         offset="0"
         id="stop22" /><stop
         style="stop-color:#783997;stop-opacity:0;"
         offset="1"
         id="stop23" /></linearGradient><linearGradient
       id="linearGradient20"
       inkscape:collect="always"><stop
         style="stop-color:#f578df;stop-opacity:1;"
         offset="0"
         id="stop20" /><stop
         style="stop-color:#ffffff;stop-opacity:1;"
         offset="1"
         id="stop21" /></linearGradient><linearGradient
       id="linearGradient18"
       inkscape:collect="always"><stop
         style="stop-color:#4dd8ee;stop-opacity:1;"
         offset="0"
         id="stop18" /><stop
         style="stop-color:#4dd8ee;stop-opacity:0;"
         offset="1"
         id="stop19" /></linearGradient><inkscape:path-effect
       effect="spiro"
       id="path-effect17"
       is_visible="true"
       lpeversion="1" /><inkscape:path-effect
       effect="spiro"
       id="path-effect16"
       is_visible="true"
       lpeversion="1" /><inkscape:path-effect
       effect="spiro"
       id="path-effect14"
       is_visible="true"
       lpeversion="1" /><inkscape:path-effect
       effect="spiro"
       id="path-effect13"
       is_visible="true"
       lpeversion="1" /><inkscape:path-effect
       effect="spiro"
       id="path-effect11"
       is_visible="true"
       lpeversion="1" /><linearGradient
       id="swatch4"
       inkscape:swatch="solid"><stop
         style="stop-color:#ffffff;stop-opacity:1;"
         offset="0"
         id="stop4" /></linearGradient><linearGradient
       id="swatch3"
       inkscape:label="Blue"
       inkscape:swatch="solid"><stop
         style="stop-color:#0600f4;stop-opacity:1;"
         offset="0"
         id="stop3" /></linearGradient><linearGradient
       inkscape:collect="always"
       xlink:href="#linearGradient18"
       id="linearGradient19"
       x1="88.980728"
       y1="77.35009"
       x2="93.259819"
       y2="112.74024"
       gradientUnits="userSpaceOnUse" /><linearGradient
       inkscape:collect="always"
       xlink:href="#linearGradient20"
       id="linearGradient21"
       x1="63.982677"
       y1="53.201424"
       x2="133.6862"
       y2="114.94068"
       gradientUnits="userSpaceOnUse" /><linearGradient
       inkscape:collect="always"
       xlink:href="#linearGradient22"
       id="linearGradient23"
       x1="71.923759"
       y1="46.237057"
       x2="129.58025"
       y2="117.7991"
       gradientUnits="userSpaceOnUse" /><linearGradient
       inkscape:collect="always"
       xlink:href="#linearGradient26"
       id="linearGradient27"
       x1="117.82422"
       y1="111.82714"
       x2="102.91773"
       y2="55.74744"
       gradientUnits="userSpaceOnUse" /><linearGradient
       inkscape:collect="always"
       xlink:href="#linearGradient28"
       id="linearGradient29"
       x1="102.14632"
       y1="104.13233"
       x2="97.981293"
       y2="57.05624"
       gradientUnits="userSpaceOnUse" /><filter
       id="mask-powermask-path-effect48_inverse"
       inkscape:label="filtermask-powermask-path-effect48"
       style="color-interpolation-filters:sRGB"
       height="100"
       width="100"
       x="-50"
       y="-50"><feColorMatrix
         id="mask-powermask-path-effect48_primitive1"
         values="1"
         type="saturate"
         result="fbSourceGraphic" /><feColorMatrix
         id="mask-powermask-path-effect48_primitive2"
         values="-1 0 0 0 1 0 -1 0 0 1 0 0 -1 0 1 0 0 0 1 0 "
         in="fbSourceGraphic" /></filter><filter
       id="mask-powermask-path-effect49_inverse"
       inkscape:label="filtermask-powermask-path-effect49"
       style="color-interpolation-filters:sRGB"
       height="100"
       width="100"
       x="-50"
       y="-50"><feColorMatrix
         id="mask-powermask-path-effect49_primitive1"
         values="1"
         type="saturate"
         result="fbSourceGraphic" /><feColorMatrix
         id="mask-powermask-path-effect49_primitive2"
         values="-1 0 0 0 1 0 -1 0 0 1 0 0 -1 0 1 0 0 0 1 0 "
         in="fbSourceGraphic" /></filter><linearGradient
       inkscape:collect="always"
       xlink:href="#linearGradient51"
       id="linearGradient52"
       x1="26.515937"
       y1="52.590132"
       x2="33.107952"
       y2="52.590132"
       gradientUnits="userSpaceOnUse" /><linearGradient
       inkscape:collect="always"
       xlink:href="#linearGradient51"
       id="linearGradient53"
       gradientUnits="userSpaceOnUse"
       x1="26.515937"
       y1="52.590132"
       x2="33.107952"
       y2="52.590132"
       gradientTransform="translate(34.40268,-15.566041)" /><linearGradient
       inkscape:collect="always"
       xlink:href="#linearGradient51"
       id="linearGradient54"
       gradientUnits="userSpaceOnUse"
       x1="26.515937"
       y1="52.590132"
       x2="33.107952"
       y2="52.590132"
       gradientTransform="translate(95.256847,-30.118124)" /><linearGradient
       inkscape:collect="always"
       xlink:href="#linearGradient51"
       id="linearGradient55"
       gradientUnits="userSpaceOnUse"
       x1="26.515937"
       y1="52.590132"
       x2="33.107952"
       y2="52.590132"
       gradientTransform="translate(85.731847,13.802709)" /><linearGradient
       inkscape:collect="always"
       xlink:href="#linearGradient51"
       id="linearGradient56"
       gradientUnits="userSpaceOnUse"
       x1="26.515937"
       y1="52.590132"
       x2="33.107952"
       y2="52.590132"
       gradientTransform="translate(156.3756,-21.651458)" /><linearGradient
       inkscape:collect="always"
       xlink:href="#linearGradient51"
       id="linearGradient57"
       gradientUnits="userSpaceOnUse"
       x1="26.515937"
       y1="52.590132"
       x2="33.107952"
       y2="52.590132"
       gradientTransform="translate(152.40685,58.781876)" /><linearGradient
       inkscape:collect="always"
       xlink:href="#linearGradient51"
       id="linearGradient58"
       gradientUnits="userSpaceOnUse"
       x1="26.515937"
       y1="52.590132"
       x2="33.107952"
       y2="52.590132"
       gradientTransform="translate(55.04018,95.558959)" /><linearGradient
       inkscape:collect="always"
       xlink:href="#linearGradient51"
       id="linearGradient59"
       gradientUnits="userSpaceOnUse"
       x1="26.515937"
       y1="52.590132"
       x2="33.107952"
       y2="52.590132"
       gradientTransform="translate(-16.39732,96.352709)" /><linearGradient
       inkscape:collect="always"
       xlink:href="#linearGradient51"
       id="linearGradient60"
       gradientUnits="userSpaceOnUse"
       x1="26.515937"
       y1="52.590132"
       x2="33.107952"
       y2="52.590132"
       gradientTransform="translate(145.52768,98.204792)" /><linearGradient
       inkscape:collect="always"
       xlink:href="#linearGradient51"
       id="linearGradient61"
       gradientUnits="userSpaceOnUse"
       x1="26.515937"
       y1="52.590132"
       x2="33.107952"
       y2="52.590132"
       gradientTransform="translate(-15.868153,-35.674374)" /><linearGradient
       inkscape:collect="always"
       xlink:href="#linearGradient63"
       id="linearGradient64"
       x1="113.85744"
       y1="98.946159"
       x2="96.20697"
       y2="58.200325"
       gradientUnits="userSpaceOnUse" /><linearGradient
       inkscape:collect="always"
       xlink:href="#linearGradient66"
       id="linearGradient67"
       x1="129.47227"
       y1="125.04346"
       x2="119.46746"
       y2="109.88929"
       gradientUnits="userSpaceOnUse" /><linearGradient
       inkscape:collect="always"
       xlink:href="#linearGradient68"
       id="linearGradient69"
       x1="27.535725"
       y1="12.511298"
       x2="38.132355"
       y2="23.736618"
       gradientUnits="userSpaceOnUse" /><linearGradient
       inkscape:collect="always"
       xlink:href="#linearGradient72"
       id="linearGradient71"
       gradientUnits="userSpaceOnUse"
       x1="27.535725"
       y1="12.511298"
       x2="38.132355"
       y2="23.736618"
       gradientTransform="translate(144.99166,116.68125)" /><filter
       id="filter2"
       inkscape:label="filtermask-powermask-path-effect49"
       style="color-interpolation-filters:sRGB"
       height="100"
       width="100"
       x="-50"
       y="-50"><feColorMatrix
         id="feColorMatrix1"
         values="1"
         type="saturate"
         result="fbSourceGraphic" /><feColorMatrix
         id="feColorMatrix2"
         values="-1 0 0 0 1 0 -1 0 0 1 0 0 -1 0 1 0 0 0 1 0 "
         in="fbSourceGraphic" /></filter><filter
       id="filter4"
       inkscape:label="filtermask-powermask-path-effect49"
       style="color-interpolation-filters:sRGB"
       height="100"
       width="100"
       x="-50"
       y="-50"><feColorMatrix
         id="feColorMatrix3"
         values="1"
         type="saturate"
         result="fbSourceGraphic" /><feColorMatrix
         id="feColorMatrix4"
         values="-1 0 0 0 1 0 -1 0 0 1 0 0 -1 0 1 0 0 0 1 0 "
         in="fbSourceGraphic" /></filter><filter
       id="mask-powermask-path-effect74_inverse"
       inkscape:label="filtermask-powermask-path-effect74"
       style="color-interpolation-filters:sRGB"
       height="100"
       width="100"
       x="-50"
       y="-50"><feColorMatrix
         id="mask-powermask-path-effect74_primitive1"
         values="1"
         type="saturate"
         result="fbSourceGraphic" /><feColorMatrix
         id="mask-powermask-path-effect74_primitive2"
         values="-1 0 0 0 1 0 -1 0 0 1 0 0 -1 0 1 0 0 0 1 0 "
         in="fbSourceGraphic" /></filter><mask
       maskUnits="userSpaceOnUse"
       id="mask-powermask-path-effect75"><path
         id="mask-powermask-path-effect75_box"
         style="fill:#ffffff;fill-opacity:1"
         d="M 21.840772,43.459929 H 179.75697 V 120.56572 H 21.840772 Z" /><path
         id="path75"
         style="opacity:0.919614;fill:#000000;fill-opacity:1;stroke:none;stroke-width:2.18414;stroke-linecap:round;stroke-linejoin:round;stroke-dasharray:none"
         inkscape:label="Full ball"
         d="M 100.79887,33.971572 A 48.041547,48.041547 0 0 0 52.757362,82.01308 48.041547,48.041547 0 0 0 54.884879,96.034446 L 94.122277,77.641773 146.55887,67.422756 a 48.041547,48.041547 0 0 0 -45.76,-33.451184 z"
         clip-path="none"
         mask="none" /></mask><filter
       id="mask-powermask-path-effect75_inverse"
       inkscape:label="filtermask-powermask-path-effect75"
       style="color-interpolation-filters:sRGB"
       height="100"
       width="100"
       x="-50"
       y="-50"><feColorMatrix
         id="mask-powermask-path-effect75_primitive1"
         values="1"
         type="saturate"
         result="fbSourceGraphic" /><feColorMatrix
         id="mask-powermask-path-effect75_primitive2"
         values="-1 0 0 0 1 0 -1 0 0 1 0 0 -1 0 1 0 0 0 1 0 "
         in="fbSourceGraphic" /></filter></defs><g
     inkscape:groupmode="layer"
     id="layer2"
     inkscape:label="Color Palette" /><g
     inkscape:groupmode="layer"
     id="layer3"
     inkscape:label="Background"
     sodipodi:insensitive="true"><rect
       style="fill:#281154;fill-opacity:1;stroke-width:2.18414;stroke-linecap:round;stroke-linejoin:round"
       id="rect19"
       width="218.40221"
       height="164.02583"
       x="-8.4022141"
       y="0"
       transform="translate(8.4022142)" /></g><g
     inkscape:label="Layer 1"
     inkscape:groupmode="layer"
     id="layer1"
     transform="translate(8.4022141)"><circle
       style="stroke-width:2.18414;stroke-linecap:round;stroke-linejoin:round;fill:none;stroke:none"
       id="path10"
       cx="100.79889"
       cy="82.012917"
       inkscape:label="Full ball"
       r="48.041546" /><path
       id="circle11"
       style="stroke-width:2.18414;stroke-linecap:round;stroke-linejoin:round;fill:none;stroke:none"
       inkscape:label="Full Inner Ball"
       d="M 100.79887 33.97157 A 48.041546 48.041546 0 0 1 107.54316 34.453711 A 48.041546 48.041546 0 0 0 100.79887 33.97157 z M 107.54316 34.453711 A 48.041546 48.041546 0 0 1 107.68631 34.471281 A 48.041546 48.041546 0 0 0 107.54316 34.453711 z M 107.68631 34.471281 A 48.041546 48.041546 0 0 1 114.18514 35.885148 A 48.041546 48.041546 0 0 0 107.68631 34.471281 z M 114.18514 35.885148 A 48.041546 48.041546 0 0 1 114.42543 35.951811 A 48.041546 48.041546 0 0 0 114.18514 35.885148 z M 114.42543 35.951811 A 48.041546 48.041546 0 0 1 120.58009 38.247278 A 48.041546 48.041546 0 0 0 114.42543 35.951811 z M 120.58009 38.247278 A 48.041546 48.041546 0 0 1 120.87672 38.378536 A 48.041546 48.041546 0 0 0 120.58009 38.247278 z M 120.87672 38.378536 A 48.041546 48.041546 0 0 1 126.59316 41.500309 A 48.041546 48.041546 0 0 0 120.87672 38.378536 z M 126.59316 41.500309 A 48.041546 48.041546 0 0 1 126.90684 41.698747 A 48.041546 48.041546 0 0 0 126.59316 41.500309 z M 126.90684 41.698747 A 48.041546 48.041546 0 0 1 132.09464 45.582231 A 48.041546 48.041546 0 0 0 126.90684 41.698747 z M 132.09464 45.582231 A 48.041546 48.041546 0 0 1 132.39643 45.84268 A 48.041546 48.041546 0 0 0 132.09464 45.582231 z M 132.39643 45.84268 A 48.041546 48.041546 0 0 1 136.96927 50.415527 A 48.041546 48.041546 0 0 0 132.39643 45.84268 z M 136.96927 50.415527 A 48.041546 48.041546 0 0 1 137.22972 50.717834 A 48.041546 48.041546 0 0 0 136.96927 50.415527 z M 137.22972 50.717834 A 48.041546 48.041546 0 0 1 141.11062 55.902014 A 48.041546 48.041546 0 0 0 137.22972 50.717834 z M 141.11062 55.902014 A 48.041546 48.041546 0 0 1 141.3132 56.221891 A 48.041546 48.041546 0 0 0 141.11062 55.902014 z M 141.3132 56.221891 A 48.041546 48.041546 0 0 1 144.43187 61.932654 A 48.041546 48.041546 0 0 0 141.3132 56.221891 z M 144.43187 61.932654 A 48.041546 48.041546 0 0 1 144.56623 62.235994 A 48.041546 48.041546 0 0 0 144.43187 61.932654 z M 144.56623 62.235994 A 48.041546 48.041546 0 0 1 146.86066 68.38859 A 48.041546 48.041546 0 0 0 144.56623 62.235994 z M 146.86066 68.38859 A 48.041546 48.041546 0 0 1 146.92629 68.624752 A 48.041546 48.041546 0 0 0 146.86066 68.38859 z M 146.92629 68.624752 A 48.041546 48.041546 0 0 1 148.34016 75.12513 A 48.041546 48.041546 0 0 0 146.92629 68.624752 z M 148.34016 75.12513 A 48.041546 48.041546 0 0 1 148.35824 75.269824 A 48.041546 48.041546 0 0 0 148.34016 75.12513 z M 148.35824 75.269824 A 48.041546 48.041546 0 0 1 148.84038 82.013082 A 48.041546 48.041546 0 0 0 148.35824 75.269824 z M 93.96208 34.460429 A 48.041546 48.041546 0 0 0 80.841951 38.312907 A 48.041546 48.041546 0 0 1 93.96208 34.460429 z M 100.79887 36.03811 A 45.975021 45.975021 0 0 0 54.823901 82.013082 A 45.975021 45.975021 0 0 0 100.79887 127.98805 A 45.975021 45.975021 0 0 0 146.77384 82.013082 A 45.975021 45.975021 0 0 0 100.79887 36.03811 z M 87.263781 128.10846 A 48.041546 48.041546 0 0 0 100.79887 130.05459 A 48.041546 48.041546 0 0 1 87.263781 128.10846 z M 100.79887 130.05459 A 48.041546 48.041546 0 0 0 113.13714 128.36891 A 48.041546 48.041546 0 0 1 100.79887 130.05459 z " /><g
       inkscape:groupmode="layer"
       id="layer4"
       inkscape:label="Inner fluid"
       sodipodi:insensitive="true"><path
         id="path16"
         style="fill:url(#linearGradient19);fill-opacity:1;stroke-width:2.18414;stroke-linecap:round;stroke-linejoin:round"
         d="M 83.687392,74.774939 C 75.676036,75.122923 68.411847,79.18841 61.203493,82.75533 a 45.975021,45.975021 0 0 0 -0.351917,4.920113 45.975021,45.975021 0 0 0 45.974974,45.974967 45.975021,45.975021 0 0 0 45.97497,-45.974967 45.975021,45.975021 0 0 0 -0.65526,-7.403682 c -5.90095,3.753261 -11.96111,7.592545 -18.86241,8.459949 -4.31632,0.542504 -8.71791,-0.131706 -12.87622,-1.409733 -4.15831,-1.278028 -8.10662,-3.14798 -12.01839,-5.051372 -3.91177,-1.903391 -7.81595,-3.851763 -11.918649,-5.298384 C 92.367889,75.5256 88.033566,74.586156 83.687392,74.774939 Z"
         transform="translate(-6.0276753,-5.6623617)"
         inkscape:label="Top fluid" /><path
         id="path14"
         style="fill:url(#linearGradient29);stroke-width:2.18414;stroke-linecap:round;stroke-linejoin:round"
         d="m 140.26468,70.656669 c -3.4497,0.06184 -6.89139,0.558644 -10.21281,1.492932 -8.68145,2.442014 -16.26503,7.653374 -24.16235,12.008053 -3.94866,2.177339 -8.029276,4.162605 -12.344468,5.470984 -4.315193,1.308379 -8.888565,1.925107 -13.358875,1.334285 -4.642939,-0.613637 -9.043107,-2.509845 -13.03538,-4.958354 -3.992273,-2.448508 -7.614856,-5.446374 -11.205001,-8.453747 -0.250811,-0.210099 -0.515474,-0.256947 -0.766361,-0.467154 -0.215278,1.687467 -0.328464,3.228485 -0.355534,4.929414 2.9e-5,25.391258 20.583707,45.974938 45.974969,45.974968 25.39126,-3e-5 45.97494,-20.58371 45.97497,-45.974968 -0.0325,-3.745493 -0.52256,-7.472982 -1.45934,-11.099581 -1.67764,-0.177292 -3.36276,-0.287074 -5.04982,-0.256832 z"
         inkscape:label="Middle fluid"
         sodipodi:nodetypes="ssssssscccccs" /><path
         id="path15"
         style="fill:url(#linearGradient27);stroke-width:2.18414;stroke-linecap:round;stroke-linejoin:round;stroke-dasharray:none"
         d="m 140.26468,70.656952 c -3.4497,0.06184 -6.89139,0.558128 -10.21281,1.492416 -8.68145,2.442013 -16.26503,7.653373 -24.16235,12.008052 -3.94866,2.17734 -8.029276,4.162605 -12.344468,5.470984 -4.315193,1.308379 -8.888565,1.925624 -13.358875,1.334802 C 75.543238,90.349569 71.14307,88.453362 67.150797,86.004853 63.158524,83.556344 59.535941,80.557962 55.945796,77.550588 55.806466,77.433875 55.66397,77.320611 55.524633,77.20384 a 45.975021,45.975021 0 0 0 45.274237,38.36355 45.975021,45.975021 0 0 0 45.87007,-44.506845 c -2.12049,-0.295815 -4.26288,-0.441979 -6.40426,-0.403593 z"
         transform="translate(6.6666665e-8,12.420664)"
         inkscape:label="Bottom fluid" /></g><path
       id="circle23"
       style="opacity:0.153675;fill:#281154;fill-opacity:1;stroke:none;stroke-width:2.18414;stroke-linecap:round;stroke-linejoin:round"
       inkscape:label="Shade"
       d="M 126.36579,44.001966 A 48.041546,48.041546 0 0 1 136.53158,73.539181 48.041546,48.041546 0 0 1 88.490063,121.5807 48.041546,48.041546 0 0 1 73.758146,119.18704 45.975021,45.975021 0 0 0 101.32804,128.51722 45.975021,45.975021 0 0 0 147.30301,82.542249 45.975021,45.975021 0 0 0 126.36579,44.001966 Z" /><path
       id="path66"
       style="stroke-width:2.18414;stroke-linecap:round;stroke-linejoin:round;fill:url(#linearGradient67);stroke:none"
       inkscape:label="Yellow bottom glow"
       d="M 100.79887 33.97157 A 48.041546 48.041546 0 0 1 107.54316 34.453711 A 48.041546 48.041546 0 0 0 100.79887 33.97157 z M 107.54316 34.453711 A 48.041546 48.041546 0 0 1 107.68631 34.471281 A 48.041546 48.041546 0 0 0 107.54316 34.453711 z M 107.68631 34.471281 A 48.041546 48.041546 0 0 1 114.18514 35.885148 A 48.041546 48.041546 0 0 0 107.68631 34.471281 z M 114.18514 35.885148 A 48.041546 48.041546 0 0 1 114.42543 35.951811 A 48.041546 48.041546 0 0 0 114.18514 35.885148 z M 114.42543 35.951811 A 48.041546 48.041546 0 0 1 120.58009 38.247278 A 48.041546 48.041546 0 0 0 114.42543 35.951811 z M 120.58009 38.247278 A 48.041546 48.041546 0 0 1 120.87672 38.378536 A 48.041546 48.041546 0 0 0 120.58009 38.247278 z M 120.87672 38.378536 A 48.041546 48.041546 0 0 1 126.59316 41.500309 A 48.041546 48.041546 0 0 0 120.87672 38.378536 z M 126.59316 41.500309 A 48.041546 48.041546 0 0 1 126.90684 41.698747 A 48.041546 48.041546 0 0 0 126.59316 41.500309 z M 126.90684 41.698747 A 48.041546 48.041546 0 0 1 132.09464 45.582231 A 48.041546 48.041546 0 0 0 126.90684 41.698747 z M 132.09464 45.582231 A 48.041546 48.041546 0 0 1 132.39643 45.84268 A 48.041546 48.041546 0 0 0 132.09464 45.582231 z M 132.39643 45.84268 A 48.041546 48.041546 0 0 1 136.96927 50.415527 A 48.041546 48.041546 0 0 0 132.39643 45.84268 z M 136.96927 50.415527 A 48.041546 48.041546 0 0 1 137.22972 50.717834 A 48.041546 48.041546 0 0 0 136.96927 50.415527 z M 137.22972 50.717834 A 48.041546 48.041546 0 0 1 141.11062 55.902014 A 48.041546 48.041546 0 0 0 137.22972 50.717834 z M 141.11062 55.902014 A 48.041546 48.041546 0 0 1 141.3132 56.221891 A 48.041546 48.041546 0 0 0 141.11062 55.902014 z M 141.3132 56.221891 A 48.041546 48.041546 0 0 1 144.43187 61.932654 A 48.041546 48.041546 0 0 0 141.3132 56.221891 z M 144.43187 61.932654 A 48.041546 48.041546 0 0 1 144.56623 62.235994 A 48.041546 48.041546 0 0 0 144.43187 61.932654 z M 144.56623 62.235994 A 48.041546 48.041546 0 0 1 146.86066 68.38859 A 48.041546 48.041546 0 0 0 144.56623 62.235994 z M 146.86066 68.38859 A 48.041546 48.041546 0 0 1 146.92629 68.624752 A 48.041546 48.041546 0 0 0 146.86066 68.38859 z M 146.92629 68.624752 A 48.041546 48.041546 0 0 1 148.34016 75.12513 A 48.041546 48.041546 0 0 0 146.92629 68.624752 z M 148.34016 75.12513 A 48.041546 48.041546 0 0 1 148.35824 75.269824 A 48.041546 48.041546 0 0 0 148.34016 75.12513 z M 148.35824 75.269824 A 48.041546 48.041546 0 0 1 148.84038 82.013082 A 48.041546 48.041546 0 0 0 148.35824 75.269824 z M 93.96208 34.460429 A 48.041546 48.041546 0 0 0 80.841951 38.312907 A 48.041546 48.041546 0 0 1 93.96208 34.460429 z M 100.79887 36.03811 A 45.975021 45.975021 0 0 0 54.823901 82.013082 A 45.975021 45.975021 0 0 0 100.79887 127.98805 A 45.975021 45.975021 0 0 0 146.77384 82.013082 A 45.975021 45.975021 0 0 0 100.79887 36.03811 z M 87.263781 128.10846 A 48.041546 48.041546 0 0 0 100.79887 130.05459 A 48.041546 48.041546 0 0 1 87.263781 128.10846 z M 100.79887 130.05459 A 48.041546 48.041546 0 0 0 113.13714 128.36891 A 48.041546 48.041546 0 0 1 100.79887 130.05459 z " /><path
       style="opacity:0.6325167;fill:none;fill-opacity:1;stroke:#ffffff;stroke-width:1.32291667;stroke-linecap:round;stroke-linejoin:round;stroke-dasharray:none;stroke-opacity:1"
       id="path25"
       sodipodi:type="arc"
       sodipodi:cx="100.79889"
       sodipodi:cy="82.012917"
       sodipodi:rx="39.671574"
       sodipodi:ry="39.671574"
       sodipodi:start="4.1020215"
       sodipodi:end="4.5353081"
       sodipodi:arc-type="arc"
       d="M 78.060388,49.504544 A 39.671574,39.671574 0 0 1 93.810469,42.961723"
       sodipodi:open="true" /><path
       style="opacity:0.6325167;fill:none;fill-opacity:1;stroke:#ffffff;stroke-width:1.32291667;stroke-linecap:round;stroke-linejoin:round;stroke-dasharray:none;stroke-opacity:1"
       id="path26"
       sodipodi:type="arc"
       sodipodi:cx="100.79889"
       sodipodi:cy="82.012917"
       sodipodi:rx="39.671574"
       sodipodi:ry="39.671574"
       sodipodi:start="3.9242591"
       sodipodi:end="4.0035233"
       sodipodi:arc-type="arc"
       d="m 72.670325,54.037613 a 39.671574,39.671574 0 0 1 2.303436,-2.139419"
       sodipodi:open="true" /><path
       id="path64"
       clip-path="none"
       mask="none"
       style="display:inline;opacity:0.11254019;mix-blend-mode:normal;fill:#000000;fill-opacity:0.866906;stroke:none;stroke-width:1.00013;stroke-linecap:round;stroke-linejoin:round;stroke-dasharray:none;stroke-opacity:1"
       inkscape:label="Ring shadow"
       d="m 146.73834,84.819008 a 19.270134,76.483665 57.150711 0 1 -29.31232,21.695502 19.270134,76.483665 57.150711 0 1 -33.375816,18.5037 45.975021,45.975021 0 0 0 2.836527,0.93576 21.14102,83.909265 57.150711 0 0 31.554179,-17.86801 21.14102,83.909265 57.150711 0 0 28.12931,-20.470143 45.975021,45.975021 0 0 0 0.16812,-2.796809 z" /><g
       inkscape:groupmode="layer"
       id="layer5"
       inkscape:label="Comets"><path
         id="path51"
         style="opacity:0.665595;stroke-width:1.00012;stroke-linecap:round;stroke-linejoin:round;fill:url(#linearGradient52);fill-opacity:1"
         d="m 27.77319,55.298526 c -0.31825,0.274244 -0.798561,0.238569 -1.072805,-0.07968 -0.274244,-0.31825 -0.23857,-0.798561 0.07968,-1.072805 0.318249,-0.274243 6.327887,-4.448751 6.327887,-4.448751 0,0 -5.016511,5.326992 -5.334762,5.601237 z"
         sodipodi:nodetypes="ssscs" /><path
         id="path51-1"
         style="opacity:0.665595;fill:url(#linearGradient53);fill-opacity:1;stroke-width:1.00012;stroke-linecap:round;stroke-linejoin:round"
         d="m 62.17587,39.732485 c -0.31825,0.274244 -0.798561,0.238569 -1.072805,-0.07968 -0.274244,-0.31825 -0.23857,-0.798561 0.07968,-1.072805 0.318249,-0.274243 6.327887,-4.448751 6.327887,-4.448751 0,0 -5.016511,5.326992 -5.334762,5.601236 z"
         sodipodi:nodetypes="ssscs" /><path
         id="path51-5"
         style="opacity:0.665595;fill:url(#linearGradient54);fill-opacity:1;stroke-width:1.00012;stroke-linecap:round;stroke-linejoin:round"
         d="m 123.03004,25.180402 c -0.31825,0.274244 -0.79856,0.238569 -1.07281,-0.07968 -0.27424,-0.31825 -0.23857,-0.798561 0.0797,-1.072805 0.31825,-0.274243 6.32789,-4.448751 6.32789,-4.448751 0,0 -5.01651,5.326992 -5.33476,5.601236 z"
         sodipodi:nodetypes="ssscs" /><path
         id="path51-10"
         style="opacity:0.1221865;fill:url(#linearGradient55);fill-opacity:1;stroke-width:1.00012;stroke-linecap:round;stroke-linejoin:round"
         d="m 113.50504,69.101235 c -0.31825,0.274244 -0.79856,0.238569 -1.07281,-0.07968 -0.27424,-0.31825 -0.23857,-0.798561 0.0797,-1.072805 0.31825,-0.274243 6.32789,-4.448751 6.32789,-4.448751 0,0 -5.01651,5.326992 -5.33476,5.601236 z"
         sodipodi:nodetypes="ssscs" /><path
         id="path51-9"
         style="opacity:0.665595;fill:url(#linearGradient56);fill-opacity:1;stroke-width:1.00012;stroke-linecap:round;stroke-linejoin:round"
         d="m 184.14879,33.647068 c -0.31825,0.274244 -0.79856,0.238569 -1.07281,-0.07968 -0.27424,-0.31825 -0.23857,-0.798561 0.0797,-1.072805 0.31825,-0.274243 6.32789,-4.448751 6.32789,-4.448751 0,0 -5.01651,5.326992 -5.33476,5.601236 z"
         sodipodi:nodetypes="ssscs" /><path
         id="path51-8"
         style="opacity:0.665595;fill:url(#linearGradient57);fill-opacity:1;stroke-width:1.00012;stroke-linecap:round;stroke-linejoin:round"
         d="m 180.18004,114.0804 c -0.31825,0.27425 -0.79856,0.23857 -1.07281,-0.0797 -0.27424,-0.31825 -0.23857,-0.79856 0.0797,-1.0728 0.31825,-0.27425 6.32789,-4.44875 6.32789,-4.44875 0,0 -5.01651,5.32699 -5.33476,5.60123 z"
         sodipodi:nodetypes="ssscs" /><path
         id="path51-3"
         style="opacity:0.665595;fill:url(#linearGradient58);fill-opacity:1;stroke-width:1.00012;stroke-linecap:round;stroke-linejoin:round"
         d="m 82.81337,150.85748 c -0.31825,0.27425 -0.798561,0.23857 -1.072805,-0.0797 -0.274244,-0.31825 -0.23857,-0.79856 0.07968,-1.0728 0.318249,-0.27424 6.327887,-4.44875 6.327887,-4.44875 0,0 -5.016511,5.32699 -5.334762,5.60123 z"
         sodipodi:nodetypes="ssscs" /><path
         id="path51-50"
         style="opacity:0.665595;fill:url(#linearGradient59);fill-opacity:1;stroke-width:1.00012;stroke-linecap:round;stroke-linejoin:round"
         d="m 11.37587,151.65124 c -0.31825,0.27424 -0.798561,0.23856 -1.072805,-0.0797 -0.274244,-0.31825 -0.23857,-0.79856 0.07968,-1.0728 0.318249,-0.27424 6.327887,-4.44875 6.327887,-4.44875 0,0 -5.016511,5.32699 -5.334762,5.60124 z"
         sodipodi:nodetypes="ssscs" /><path
         id="path51-37"
         style="opacity:0.665595;fill:url(#linearGradient60);fill-opacity:1;stroke-width:1.00012;stroke-linecap:round;stroke-linejoin:round"
         d="m 173.30087,153.50332 c -0.31825,0.27424 -0.79856,0.23857 -1.0728,-0.0797 -0.27425,-0.31825 -0.23858,-0.79856 0.0797,-1.07281 0.31825,-0.27424 6.32789,-4.44875 6.32789,-4.44875 0,0 -5.01651,5.32699 -5.33476,5.60124 z"
         sodipodi:nodetypes="ssscs" /><path
         id="path51-2"
         style="opacity:0.665595;fill:url(#linearGradient61);fill-opacity:1;stroke-width:1.00012;stroke-linecap:round;stroke-linejoin:round"
         d="m 11.905037,19.624152 c -0.31825,0.274244 -0.798561,0.238569 -1.072805,-0.07968 -0.274244,-0.31825 -0.23857,-0.798561 0.07968,-1.072805 0.318249,-0.274243 6.327887,-4.448751 6.327887,-4.448751 0,0 -5.016511,5.326992 -5.334762,5.601236 z"
         sodipodi:nodetypes="ssscs" /></g><circle
       style="opacity:0.365256;mix-blend-mode:screen;fill:url(#linearGradient23);fill-opacity:1;stroke:none;stroke-width:2.18414;stroke-linecap:round;stroke-linejoin:round"
       id="circle21"
       cx="100.79889"
       cy="82.012917"
       r="48.041546"
       inkscape:label="Purple glow"
       sodipodi:insensitive="true" /><circle
       style="opacity:1;fill:url(#linearGradient69);fill-opacity:1;stroke:none;stroke-width:1.00012;stroke-linecap:round;stroke-linejoin:round;stroke-dasharray:none;stroke-opacity:1"
       id="path67"
       cx="32.740494"
       cy="18.123959"
       r="5.953125" /><circle
       style="fill:url(#linearGradient71);fill-opacity:1;stroke:none;stroke-width:1.00012;stroke-linecap:round;stroke-linejoin:round;stroke-dasharray:none;stroke-opacity:1"
       id="path67-8"
       cx="177.73216"
       cy="134.80521"
       r="5.953125" /><path
       id="circle10"
       style="opacity:0.18930958;mix-blend-mode:lighten;fill:url(#linearGradient21);fill-opacity:1;stroke-width:2.09019;stroke-linecap:round;stroke-linejoin:round"
       d="M 100.79887,33.97157 A 48.041546,48.041546 0 0 0 52.75736,82.013082 48.041546,48.041546 0 0 0 100.79887,130.05459 48.041546,48.041546 0 0 0 148.84038,82.013082 48.041546,48.041546 0 0 0 100.79887,33.97157 Z m 0,2.06654 A 45.975021,45.975021 0 0 1 146.77384,82.013082 45.975021,45.975021 0 0 1 100.79887,127.98805 45.975021,45.975021 0 0 1 54.823901,82.013082 45.975021,45.975021 0 0 1 100.79887,36.03811 Z"
       inkscape:label="Full ball stroke" /><path
       sodipodi:type="star"
       style="opacity:1;fill:#f1e4e9;fill-opacity:1;stroke:none;stroke-width:1.00012;stroke-linecap:round;stroke-linejoin:round;stroke-dasharray:none;stroke-opacity:1"
       id="path72"
       inkscape:flatsided="false"
       sodipodi:sides="4"
       sodipodi:cx="84"
       sodipodi:cy="283"
       sodipodi:r1="53.620487"
       sodipodi:r2="18.772058"
       sodipodi:arg1="0.70137619"
       sodipodi:arg2="1.524734"
       inkscape:rounded="0.1"
       inkscape:randomized="0"
       d="m 124.96363,317.59967 c -2.90529,3.18594 -35.802743,-16.20941 -40.099251,-15.84752 -4.169789,0.35121 -32.372074,25.03109 -35.464052,22.21148 -3.185942,-2.90529 16.20941,-35.80274 15.847526,-40.09925 -0.351211,-4.16979 -25.031091,-32.37208 -22.211487,-35.46405 2.905291,-3.18594 35.802747,16.20941 40.099255,15.84752 4.169789,-0.35121 32.372079,-25.03109 35.464049,-22.21148 3.18594,2.90529 -16.20941,35.80274 -15.84752,40.09925 0.35121,4.16979 25.03109,32.37208 22.21148,35.46405 z"
       transform="matrix(0.0243676,-0.02275615,0.0216493,0.02561343,7.3689455,70.092349)" /><path
       sodipodi:type="star"
       style="fill:#f1e4e9;fill-opacity:1;stroke:none;stroke-width:1.00012;stroke-linecap:round;stroke-linejoin:round;stroke-dasharray:none;stroke-opacity:1"
       id="path72-9"
       inkscape:flatsided="false"
       sodipodi:sides="4"
       sodipodi:cx="84"
       sodipodi:cy="283"
       sodipodi:r1="53.620487"
       sodipodi:r2="18.772058"
       sodipodi:arg1="0.70137619"
       sodipodi:arg2="1.524734"
       inkscape:rounded="0.1"
       inkscape:randomized="0"
       d="m 124.96363,317.59967 c -2.90529,3.18594 -35.802743,-16.20941 -40.099251,-15.84752 -4.169789,0.35121 -32.372074,25.03109 -35.464052,22.21148 -3.185942,-2.90529 16.20941,-35.80274 15.847526,-40.09925 -0.351211,-4.16979 -25.031091,-32.37208 -22.211487,-35.46405 2.905291,-3.18594 35.802747,16.20941 40.099255,15.84752 4.169789,-0.35121 32.372079,-25.03109 35.464049,-22.21148 3.18594,2.90529 -16.20941,35.80274 -15.84752,40.09925 0.35121,4.16979 25.03109,32.37208 22.21148,35.46405 z"
       transform="matrix(0.02933217,-0.0273924,0.02606005,0.03083182,110.33295,138.39673)" /><path
       sodipodi:type="star"
       style="fill:#f1e4e9;fill-opacity:1;stroke:none;stroke-width:1.00012;stroke-linecap:round;stroke-linejoin:round;stroke-dasharray:none;stroke-opacity:1"
       id="path72-7"
       inkscape:flatsided="false"
       sodipodi:sides="4"
       sodipodi:cx="84"
       sodipodi:cy="283"
       sodipodi:r1="53.620487"
       sodipodi:r2="21.410527"
       sodipodi:arg1="0.70137619"
       sodipodi:arg2="1.459695"
       inkscape:rounded="0.1"
       inkscape:randomized="0"
       d="m 124.96363,317.59967 c -2.54881,3.18902 -34.521751,-13.66374 -38.589783,-13.32115 -4.173954,0.35151 -33.701472,22.30029 -36.97352,19.68511 -3.189012,-2.54881 13.663738,-34.52175 13.321151,-38.58978 -0.351507,-4.17396 -22.30029,-33.70148 -19.685112,-36.97352 2.548813,-3.18902 34.521755,13.66374 38.589787,13.32115 4.173954,-0.35151 33.701477,-22.30029 36.973517,-19.68511 3.18902,2.54881 -13.66374,34.52175 -13.32115,38.58978 0.35151,4.17396 22.30029,33.70148 19.68511,36.97352 z"
       transform="matrix(0.05849969,-0.05463106,0.05197382,0.06149058,174.60737,66.208774)" /><circle
       style="opacity:1;fill:#f1e4e9;fill-opacity:1;stroke:none;stroke-width:1.00012;stroke-linecap:round;stroke-linejoin:round;stroke-dasharray:none;stroke-opacity:1"
       id="path73"
       cx="84.995705"
       cy="19.314583"
       r="1.5875" /><circle
       style="fill:#f1e4e9;fill-opacity:1;stroke:none;stroke-width:1.00012;stroke-linecap:round;stroke-linejoin:round;stroke-dasharray:none;stroke-opacity:1;opacity:0.26045016"
       id="path73-7"
       cx="83.143616"
       cy="59.53125"
       r="1.5875" /><circle
       style="fill:#4c7a92;fill-opacity:1;stroke:none;stroke-width:1.00012;stroke-linecap:round;stroke-linejoin:round;stroke-dasharray:none;stroke-opacity:1"
       id="path73-1"
       cx="172.24167"
       cy="40.668739"
       r="1.5875" /><circle
       style="fill:#4c7a92;fill-opacity:1;stroke:none;stroke-width:1.00012;stroke-linecap:round;stroke-linejoin:round;stroke-dasharray:none;stroke-opacity:1"
       id="path73-1-7"
       cx="21.917555"
       cy="99.307648"
       r="1.5875" /><circle
       style="fill:#4c7a92;fill-opacity:1;stroke:none;stroke-width:1.00012;stroke-linecap:round;stroke-linejoin:round;stroke-dasharray:none;stroke-opacity:1"
       id="path73-1-8"
       cx="57.923698"
       cy="152.84482"
       r="1.5875" /><path
       id="path43"
       style="display:inline;opacity:1;mix-blend-mode:screen;fill:url(#linearGradient64);fill-opacity:1;stroke:none;stroke-width:1.00013;stroke-linecap:round;stroke-linejoin:round;stroke-dasharray:none;stroke-opacity:1"
       d="M 92.71844,62.476904 A 21.14102,83.909265 67.529078 0 0 23.260794,114.08433 21.14102,83.909265 67.529078 0 0 108.8793,101.54875 21.14102,83.909265 67.529078 0 0 178.33714,49.941792 21.14102,83.909265 67.529078 0 0 92.71844,62.476904 Z m 0.715201,1.729129 A 19.270134,76.483665 67.529078 0 1 171.47555,52.77988 19.270134,76.483665 67.529078 0 1 108.1643,99.82009 19.270134,76.483665 67.529078 0 1 30.122397,111.24624 19.270134,76.483665 67.529078 0 1 93.433641,64.206033 Z"
       inkscape:label="Ring"
       clip-path="none"
       mask="url(#mask-powermask-path-effect75)"
       transform="rotate(-10.378367,100.79887,83.440185)"
       inkscape:path-effect="#path-effect75"
       inkscape:original-d="M 92.71844,62.476904 A 21.14102,83.909265 67.529078 0 0 23.260794,114.08433 21.14102,83.909265 67.529078 0 0 108.8793,101.54875 21.14102,83.909265 67.529078 0 0 178.33714,49.941792 21.14102,83.909265 67.529078 0 0 92.71844,62.476904 Z m 0.715201,1.729129 A 19.270134,76.483665 67.529078 0 1 171.47555,52.77988 19.270134,76.483665 67.529078 0 1 108.1643,99.82009 19.270134,76.483665 67.529078 0 1 30.122397,111.24624 19.270134,76.483665 67.529078 0 1 93.433641,64.206033 Z" /></g></svg>
